<?xml version="1.0" encoding="UTF-8" standalone="no"?>
<!-- Created with Inkscape (http://www.inkscape.org/) -->

<svg
   version="1.1"
   id="svg2"
   xml:space="preserve"
   width="2492.8533"
   height="1496"
   viewBox="0 0 2492.8533 1496"
   sodipodi:docname="2806773_17879.eps"
   xmlns:inkscape="http://www.inkscape.org/namespaces/inkscape"
   xmlns:sodipodi="http://sodipodi.sourceforge.net/DTD/sodipodi-0.dtd"
   xmlns="http://www.w3.org/2000/svg"
   xmlns:svg="http://www.w3.org/2000/svg"><defs
     id="defs6"><clipPath
       clipPathUnits="userSpaceOnUse"
       id="clipPath82"><path
         d="m 17384.7,2071.66 c -69.3,-56.85 -171.6,-46.71 -228.4,22.65 -56.9,69.36 -46.7,171.67 22.6,228.52 69.4,56.86 171.7,46.72 228.5,-22.64 56.8,-69.36 46.7,-171.68 -22.7,-228.53 z"
         id="path80" /></clipPath><linearGradient
       x1="0"
       y1="0"
       x2="1"
       y2="0"
       gradientUnits="userSpaceOnUse"
       gradientTransform="matrix(324.715,0,0,-324.715,17119.5,2197.25)"
       spreadMethod="pad"
       id="linearGradient90"><stop
         style="stop-opacity:1;stop-color:#364973"
         offset="0"
         id="stop84" /><stop
         style="stop-opacity:1;stop-color:#364973"
         offset="0.00316885"
         id="stop86" /><stop
         style="stop-opacity:1;stop-color:#272525"
         offset="1"
         id="stop88" /></linearGradient><clipPath
       clipPathUnits="userSpaceOnUse"
       id="clipPath100"><path
         d="m 17281.8,2284.96 c -19.6,0 -39.3,-6.5 -55.6,-19.85 -18.1,-14.86 -29.4,-35.88 -31.7,-59.2 -2.3,-23.33 4.6,-46.16 19.5,-64.29 14.8,-18.13 35.9,-29.38 59.2,-31.7 23.3,-2.32 46.1,4.6 64.2,19.46 v 0 c 37.5,30.68 43,86.08 12.3,123.5 -17.3,21.13 -42.5,32.08 -67.9,32.08 z m 0.5,-324.75 c -7.9,0 -15.9,0.39 -23.8,1.18 -63,6.24 -119.8,36.64 -159.9,85.61 -40.2,48.96 -58.8,110.62 -52.6,173.62 6.3,63 36.7,119.81 85.6,159.94 101.1,82.85 250.7,68.01 333.5,-33.06 40.1,-48.97 58.8,-110.62 52.5,-173.63 -6.2,-63 -36.6,-119.8 -85.6,-159.93 -42.7,-35.06 -95.2,-53.73 -149.7,-53.73 z"
         id="path98" /></clipPath><linearGradient
       x1="0"
       y1="0"
       x2="1"
       y2="0"
       gradientUnits="userSpaceOnUse"
       gradientTransform="matrix(473.993,0,0,-473.993,17044.8,2197.19)"
       spreadMethod="pad"
       id="linearGradient108"><stop
         style="stop-opacity:1;stop-color:#364973"
         offset="0"
         id="stop102" /><stop
         style="stop-opacity:1;stop-color:#364973"
         offset="0.00316885"
         id="stop104" /><stop
         style="stop-opacity:1;stop-color:#272525"
         offset="1"
         id="stop106" /></linearGradient><clipPath
       clipPathUnits="userSpaceOnUse"
       id="clipPath118"><path
         d="m 16771,2638.97 c -69.3,-56.85 -171.6,-46.71 -228.4,22.65 -56.9,69.36 -46.7,171.67 22.6,228.52 69.3,56.85 171.6,46.72 228.5,-22.64 56.8,-69.36 46.7,-171.68 -22.7,-228.53 z"
         id="path116" /></clipPath><linearGradient
       x1="0"
       y1="0"
       x2="1"
       y2="0"
       gradientUnits="userSpaceOnUse"
       gradientTransform="matrix(324.715,0,0,-324.715,16505.8,2764.56)"
       spreadMethod="pad"
       id="linearGradient126"><stop
         style="stop-opacity:1;stop-color:#364973"
         offset="0"
         id="stop120" /><stop
         style="stop-opacity:1;stop-color:#364973"
         offset="0.00316885"
         id="stop122" /><stop
         style="stop-opacity:1;stop-color:#272525"
         offset="1"
         id="stop124" /></linearGradient><clipPath
       clipPathUnits="userSpaceOnUse"
       id="clipPath136"><path
         d="m 16668,2852.32 c -20.2,0 -39.7,-6.92 -55.5,-19.9 -37.4,-30.67 -42.9,-86.07 -12.2,-123.49 30.6,-37.41 86,-42.91 123.4,-12.24 37.5,30.67 42.9,86.07 12.3,123.49 -14.9,18.13 -35.9,29.39 -59.2,31.7 -3,0.29 -5.9,0.44 -8.8,0.44 z m 0.3,-324.68 c -68.6,0 -136.7,29.57 -183.5,86.66 -82.8,101.08 -68,250.72 33.1,333.56 49,40.13 110.6,58.82 173.6,52.56 63,-6.25 119.8,-36.65 159.9,-85.61 82.8,-101.08 68,-250.71 -33.1,-333.56 v 0 c -43.9,-36.05 -97.1,-53.61 -150,-53.61 z"
         id="path134" /></clipPath><linearGradient
       x1="0"
       y1="0"
       x2="1"
       y2="0"
       gradientUnits="userSpaceOnUse"
       gradientTransform="matrix(473.741,0,0,-473.741,16431.3,2764.62)"
       spreadMethod="pad"
       id="linearGradient144"><stop
         style="stop-opacity:1;stop-color:#364973"
         offset="0"
         id="stop138" /><stop
         style="stop-opacity:1;stop-color:#364973"
         offset="0.00316885"
         id="stop140" /><stop
         style="stop-opacity:1;stop-color:#272525"
         offset="1"
         id="stop142" /></linearGradient><clipPath
       clipPathUnits="userSpaceOnUse"
       id="clipPath154"><path
         d="m 15944.5,3140.82 c -69.3,-56.85 -171.6,-46.71 -228.4,22.65 -56.9,69.36 -46.7,171.67 22.6,228.52 69.3,56.86 171.6,46.72 228.5,-22.64 56.8,-69.36 46.7,-171.68 -22.7,-228.53 z"
         id="path152" /></clipPath><linearGradient
       x1="0"
       y1="0"
       x2="1"
       y2="0"
       gradientUnits="userSpaceOnUse"
       gradientTransform="matrix(324.715,0,0,-324.715,15679.3,3266.41)"
       spreadMethod="pad"
       id="linearGradient162"><stop
         style="stop-opacity:1;stop-color:#364973"
         offset="0"
         id="stop156" /><stop
         style="stop-opacity:1;stop-color:#364973"
         offset="0.00316885"
         id="stop158" /><stop
         style="stop-opacity:1;stop-color:#272525"
         offset="1"
         id="stop160" /></linearGradient><clipPath
       clipPathUnits="userSpaceOnUse"
       id="clipPath172"><path
         d="m 15841.5,3354.12 c -19.5,0 -39.2,-6.5 -55.5,-19.84 -37.4,-30.67 -42.9,-86.08 -12.2,-123.5 30.6,-37.42 86,-42.9 123.4,-12.24 v 0 c 18.2,14.87 29.4,35.89 31.7,59.22 2.3,23.32 -4.6,46.15 -19.4,64.28 -17.3,21.13 -42.6,32.08 -68,32.08 z m 0.3,-324.63 c -68.6,0 -136.7,29.57 -183.5,86.66 -82.8,101.09 -68,250.72 33.1,333.57 101.1,82.84 250.7,68.02 333.5,-33.06 40.1,-48.96 58.8,-110.62 52.5,-173.63 -6.2,-63 -36.6,-119.8 -85.6,-159.93 v 0 c -43.9,-36.05 -97.1,-53.61 -150,-53.61 z"
         id="path170" /></clipPath><linearGradient
       x1="0"
       y1="0"
       x2="1"
       y2="0"
       gradientUnits="userSpaceOnUse"
       gradientTransform="matrix(473.864,0,0,-473.864,15604.7,3266.41)"
       spreadMethod="pad"
       id="linearGradient180"><stop
         style="stop-opacity:1;stop-color:#364973"
         offset="0"
         id="stop174" /><stop
         style="stop-opacity:1;stop-color:#364973"
         offset="0.00316885"
         id="stop176" /><stop
         style="stop-opacity:1;stop-color:#272525"
         offset="1"
         id="stop178" /></linearGradient><clipPath
       clipPathUnits="userSpaceOnUse"
       id="clipPath204"><path
         d="m 13012.9,3857.17 c -69.4,-56.85 -171.7,-46.7 -228.5,22.66 -56.9,69.36 -46.7,171.67 22.6,228.52 69.4,56.85 171.7,46.71 228.5,-22.65 56.8,-69.36 46.7,-171.67 -22.6,-228.53 z"
         id="path202" /></clipPath><linearGradient
       x1="0"
       y1="0"
       x2="1"
       y2="0"
       gradientUnits="userSpaceOnUse"
       gradientTransform="matrix(324.715,0,0,-324.715,12747.6,3982.76)"
       spreadMethod="pad"
       id="linearGradient212"><stop
         style="stop-opacity:1;stop-color:#364973"
         offset="0"
         id="stop206" /><stop
         style="stop-opacity:1;stop-color:#364973"
         offset="0.00316885"
         id="stop208" /><stop
         style="stop-opacity:1;stop-color:#272525"
         offset="1"
         id="stop210" /></linearGradient><clipPath
       clipPathUnits="userSpaceOnUse"
       id="clipPath222"><path
         d="m 12909.9,4070.48 c -19.6,0 -39.3,-6.5 -55.6,-19.85 -37.4,-30.67 -42.9,-86.07 -12.2,-123.49 30.6,-37.43 86,-42.91 123.5,-12.25 37.4,30.68 42.9,86.08 12.2,123.5 -17.3,21.14 -42.5,32.09 -67.9,32.09 z m 0.5,-324.76 c -7.9,0 -15.9,0.39 -23.8,1.18 -63,6.25 -119.8,36.65 -159.9,85.61 -40.2,48.97 -58.8,110.63 -52.6,173.63 6.3,63 36.7,119.8 85.6,159.93 49,40.13 110.6,58.8 173.6,52.55 63,-6.24 119.8,-36.64 159.9,-85.61 40.1,-48.96 58.8,-110.62 52.5,-173.62 -6.2,-63 -36.6,-119.8 -85.5,-159.94 -42.8,-35.05 -95.3,-53.73 -149.8,-53.73 z"
         id="path220" /></clipPath><linearGradient
       x1="0"
       y1="0"
       x2="1"
       y2="0"
       gradientUnits="userSpaceOnUse"
       gradientTransform="matrix(473.991,0,0,-473.991,12672.9,3982.76)"
       spreadMethod="pad"
       id="linearGradient230"><stop
         style="stop-opacity:1;stop-color:#364973"
         offset="0"
         id="stop224" /><stop
         style="stop-opacity:1;stop-color:#364973"
         offset="0.00316885"
         id="stop226" /><stop
         style="stop-opacity:1;stop-color:#272525"
         offset="1"
         id="stop228" /></linearGradient><clipPath
       clipPathUnits="userSpaceOnUse"
       id="clipPath240"><path
         d="m 12412.4,4569.93 c -69.3,-56.85 -171.6,-46.71 -228.5,22.65 -56.8,69.37 -46.7,171.68 22.7,228.53 69.3,56.85 171.6,46.71 228.5,-22.65 56.8,-69.36 46.7,-171.67 -22.7,-228.53 z"
         id="path238" /></clipPath><linearGradient
       x1="0"
       y1="0"
       x2="1"
       y2="0"
       gradientUnits="userSpaceOnUse"
       gradientTransform="matrix(324.715,0,0,-324.715,12147.1,4695.52)"
       spreadMethod="pad"
       id="linearGradient248"><stop
         style="stop-opacity:1;stop-color:#364973"
         offset="0"
         id="stop242" /><stop
         style="stop-opacity:1;stop-color:#364973"
         offset="0.00316885"
         id="stop244" /><stop
         style="stop-opacity:1;stop-color:#272525"
         offset="1"
         id="stop246" /></linearGradient><clipPath
       clipPathUnits="userSpaceOnUse"
       id="clipPath258"><path
         d="m 12309.4,4783.24 c -19.6,0 -39.2,-6.5 -55.5,-19.85 -37.4,-30.67 -42.9,-86.07 -12.3,-123.5 30.7,-37.42 86.1,-42.9 123.5,-12.23 37.4,30.67 42.9,86.07 12.2,123.49 -17.3,21.14 -42.5,32.09 -67.9,32.09 z m 0.5,-324.76 c -7.9,0 -15.8,0.39 -23.8,1.18 -63,6.25 -119.8,36.65 -159.9,85.61 -40.1,48.97 -58.8,110.63 -52.5,173.63 6.2,63 36.6,119.8 85.6,159.93 48.9,40.13 110.6,58.79 173.6,52.55 62.9,-6.24 119.7,-36.64 159.9,-85.61 40.1,-48.96 58.7,-110.62 52.5,-173.62 -6.2,-63 -36.6,-119.8 -85.6,-159.94 -42.8,-35.05 -95.2,-53.73 -149.8,-53.73 z"
         id="path256" /></clipPath><linearGradient
       x1="0"
       y1="0"
       x2="1"
       y2="0"
       gradientUnits="userSpaceOnUse"
       gradientTransform="matrix(473.991,0,0,-473.991,12072.5,4695.52)"
       spreadMethod="pad"
       id="linearGradient266"><stop
         style="stop-opacity:1;stop-color:#364973"
         offset="0"
         id="stop260" /><stop
         style="stop-opacity:1;stop-color:#364973"
         offset="0.00316885"
         id="stop262" /><stop
         style="stop-opacity:1;stop-color:#272525"
         offset="1"
         id="stop264" /></linearGradient><clipPath
       clipPathUnits="userSpaceOnUse"
       id="clipPath276"><path
         d="m 12129.4,5535.4 c -69.4,-56.85 -171.7,-46.71 -228.5,22.65 -56.8,69.36 -46.7,171.67 22.6,228.52 69.4,56.85 171.7,46.72 228.5,-22.64 56.9,-69.36 46.7,-171.68 -22.6,-228.53 z"
         id="path274" /></clipPath><linearGradient
       x1="0"
       y1="0"
       x2="1"
       y2="0"
       gradientUnits="userSpaceOnUse"
       gradientTransform="matrix(324.715,0,0,-324.715,11864.1,5660.99)"
       spreadMethod="pad"
       id="linearGradient284"><stop
         style="stop-opacity:1;stop-color:#364973"
         offset="0"
         id="stop278" /><stop
         style="stop-opacity:1;stop-color:#364973"
         offset="0.00316885"
         id="stop280" /><stop
         style="stop-opacity:1;stop-color:#272525"
         offset="1"
         id="stop282" /></linearGradient><clipPath
       clipPathUnits="userSpaceOnUse"
       id="clipPath294"><path
         d="m 12026.4,5748.7 c -19.6,0 -39.3,-6.5 -55.6,-19.85 -18.1,-14.85 -29.3,-35.88 -31.6,-59.21 -2.4,-23.32 4.6,-46.15 19.4,-64.28 14.9,-18.13 35.9,-29.39 59.2,-31.7 23.3,-2.31 46.2,4.6 64.3,19.46 37.4,30.68 42.9,86.07 12.2,123.5 -17.3,21.13 -42.5,32.08 -67.9,32.08 z m 0.5,-324.75 c -7.9,0 -15.8,0.39 -23.8,1.18 -63,6.24 -119.8,36.64 -159.9,85.61 -40.1,48.96 -58.8,110.62 -52.6,173.62 6.3,63.01 36.7,119.8 85.6,159.93 49,40.14 110.6,58.83 173.6,52.56 63,-6.24 119.8,-36.65 159.9,-85.61 82.9,-101.08 68,-250.71 -33,-333.56 -42.8,-35.06 -95.2,-53.73 -149.8,-53.73 z"
         id="path292" /></clipPath><linearGradient
       x1="0"
       y1="0"
       x2="1"
       y2="0"
       gradientUnits="userSpaceOnUse"
       gradientTransform="matrix(473.867,0,0,-473.867,11789.5,5660.99)"
       spreadMethod="pad"
       id="linearGradient302"><stop
         style="stop-opacity:1;stop-color:#364973"
         offset="0"
         id="stop296" /><stop
         style="stop-opacity:1;stop-color:#364973"
         offset="0.00316885"
         id="stop298" /><stop
         style="stop-opacity:1;stop-color:#272525"
         offset="1"
         id="stop300" /></linearGradient><clipPath
       clipPathUnits="userSpaceOnUse"
       id="clipPath316"><path
         d="m 12248.7,7179.76 c -69.3,-56.85 -171.6,-46.71 -228.5,22.65 -56.8,69.36 -46.7,171.68 22.7,228.53 69.3,56.85 171.6,46.71 228.4,-22.65 56.9,-69.36 46.7,-171.67 -22.6,-228.53 z"
         id="path314" /></clipPath><linearGradient
       x1="0"
       y1="0"
       x2="1"
       y2="0"
       gradientUnits="userSpaceOnUse"
       gradientTransform="matrix(324.715,0,0,-324.715,11983.4,7305.35)"
       spreadMethod="pad"
       id="linearGradient324"><stop
         style="stop-opacity:1;stop-color:#364973"
         offset="0"
         id="stop318" /><stop
         style="stop-opacity:1;stop-color:#364973"
         offset="0.00316885"
         id="stop320" /><stop
         style="stop-opacity:1;stop-color:#272525"
         offset="1"
         id="stop322" /></linearGradient><clipPath
       clipPathUnits="userSpaceOnUse"
       id="clipPath334"><path
         d="m 12145.7,7393.06 c -19.6,0 -39.3,-6.49 -55.5,-19.84 -37.5,-30.67 -42.9,-86.07 -12.3,-123.5 30.7,-37.41 86.1,-42.91 123.5,-12.24 37.4,30.68 42.9,86.08 12.2,123.5 -17.3,21.14 -42.5,32.08 -67.9,32.08 z m 0.3,-324.63 c -68.6,0 -136.7,29.58 -183.5,86.67 -82.8,101.08 -68,250.71 33.1,333.56 48.9,40.13 110.6,58.8 173.5,52.55 63,-6.24 119.8,-36.64 160,-85.61 82.8,-101.07 68,-250.71 -33.1,-333.56 v 0 c -44,-36.04 -97.1,-53.61 -150,-53.61 z"
         id="path332" /></clipPath><linearGradient
       x1="0"
       y1="0"
       x2="1"
       y2="0"
       gradientUnits="userSpaceOnUse"
       gradientTransform="matrix(473.741,0,0,-473.741,11908.9,7305.41)"
       spreadMethod="pad"
       id="linearGradient342"><stop
         style="stop-opacity:1;stop-color:#364973"
         offset="0"
         id="stop336" /><stop
         style="stop-opacity:1;stop-color:#364973"
         offset="0.00316885"
         id="stop338" /><stop
         style="stop-opacity:1;stop-color:#272525"
         offset="1"
         id="stop340" /></linearGradient><clipPath
       clipPathUnits="userSpaceOnUse"
       id="clipPath352"><path
         d="m 11906.3,7924.64 c -69.3,-56.86 -171.6,-46.71 -228.4,22.65 -56.9,69.36 -46.8,171.67 22.6,228.52 69.3,56.85 171.6,46.72 228.5,-22.64 56.8,-69.36 46.7,-171.68 -22.7,-228.53 z"
         id="path350" /></clipPath><linearGradient
       x1="0"
       y1="0"
       x2="1"
       y2="0"
       gradientUnits="userSpaceOnUse"
       gradientTransform="matrix(324.715,0,0,-324.715,11641.1,8050.23)"
       spreadMethod="pad"
       id="linearGradient360"><stop
         style="stop-opacity:1;stop-color:#364973"
         offset="0"
         id="stop354" /><stop
         style="stop-opacity:1;stop-color:#364973"
         offset="0.00316885"
         id="stop356" /><stop
         style="stop-opacity:1;stop-color:#272525"
         offset="1"
         id="stop358" /></linearGradient><clipPath
       clipPathUnits="userSpaceOnUse"
       id="clipPath370"><path
         d="m 11803.3,8137.98 c -20.2,0 -39.7,-6.91 -55.5,-19.89 -18.1,-14.86 -29.4,-35.88 -31.7,-59.21 -2.3,-23.32 4.6,-46.15 19.5,-64.28 14.8,-18.13 35.8,-29.38 59.2,-31.7 23.3,-2.31 46.1,4.6 64.2,19.46 v 0 c 18.2,14.86 29.4,35.89 31.7,59.21 2.3,23.33 -4.6,46.16 -19.4,64.29 -14.9,18.13 -35.9,29.38 -59.2,31.69 -3,0.29 -5.9,0.43 -8.8,0.43 z m 0.5,-324.79 c -7.9,0 -15.8,0.38 -23.8,1.17 -62.9,6.25 -119.7,36.65 -159.9,85.62 -40.1,48.96 -58.7,110.62 -52.5,173.62 6.2,63 36.6,119.8 85.6,159.93 48.9,40.13 110.6,58.82 173.6,52.56 63,-6.24 119.8,-36.65 159.9,-85.61 40.1,-48.96 58.8,-110.63 52.5,-173.63 -6.2,-63 -36.6,-119.8 -85.6,-159.93 -42.7,-35.06 -95.2,-53.73 -149.8,-53.73 z"
         id="path368" /></clipPath><linearGradient
       x1="0"
       y1="0"
       x2="1"
       y2="0"
       gradientUnits="userSpaceOnUse"
       gradientTransform="matrix(473.993,0,0,-473.993,11566.4,8050.23)"
       spreadMethod="pad"
       id="linearGradient378"><stop
         style="stop-opacity:1;stop-color:#364973"
         offset="0"
         id="stop372" /><stop
         style="stop-opacity:1;stop-color:#364973"
         offset="0.00316885"
         id="stop374" /><stop
         style="stop-opacity:1;stop-color:#272525"
         offset="1"
         id="stop376" /></linearGradient><clipPath
       clipPathUnits="userSpaceOnUse"
       id="clipPath388"><path
         d="m 16221.3,962.199 c -69.4,-56.898 -171.6,-46.699 -228.5,22.602 -56.8,69.399 -46.7,171.699 22.7,228.499 69.3,56.89 171.6,46.75 228.4,-22.6 56.9,-69.4 46.7,-171.7 -22.6,-228.501 z"
         id="path386" /></clipPath><linearGradient
       x1="0"
       y1="0"
       x2="1"
       y2="0"
       gradientUnits="userSpaceOnUse"
       gradientTransform="matrix(324.715,0,0,-324.715,15956,1087.8)"
       spreadMethod="pad"
       id="linearGradient398"><stop
         style="stop-opacity:1;stop-color:#ba225b"
         offset="0"
         id="stop390" /><stop
         style="stop-opacity:1;stop-color:#ba225b"
         offset="0.369182"
         id="stop392" /><stop
         style="stop-opacity:1;stop-color:#ba225b"
         offset="0.62191149"
         id="stop394" /><stop
         style="stop-opacity:1;stop-color:#272525"
         offset="1"
         id="stop396" /></linearGradient><clipPath
       clipPathUnits="userSpaceOnUse"
       id="clipPath408"><path
         d="m 16118.3,1175.5 c -19.6,0 -39.3,-6.5 -55.5,-19.9 -37.5,-30.7 -42.9,-86.1 -12.3,-123.5 30.7,-37.401 86.1,-42.901 123.5,-12.2 37.4,30.7 42.9,86.1 12.2,123.5 -17.3,21.1 -42.5,32.1 -67.9,32.1 z m 0.5,-324.801 c -7.9,0 -15.8,0.403 -23.8,1.199 -63,6.204 -119.8,36.602 -159.9,85.602 -40.1,49 -58.8,110.6 -52.5,173.6 6.2,63 36.6,119.82 85.6,159.96 48.9,40.13 110.6,58.81 173.5,52.56 63,-6.25 119.8,-36.66 159.9,-85.62 82.9,-101.1 68,-250.699 -33,-333.602 -42.8,-35 -95.2,-53.699 -149.8,-53.699 z"
         id="path406" /></clipPath><linearGradient
       x1="0"
       y1="0"
       x2="1"
       y2="0"
       gradientUnits="userSpaceOnUse"
       gradientTransform="matrix(473.864,0,0,-473.864,15881.4,1087.8)"
       spreadMethod="pad"
       id="linearGradient418"><stop
         style="stop-opacity:1;stop-color:#ba225b"
         offset="0"
         id="stop410" /><stop
         style="stop-opacity:1;stop-color:#ba225b"
         offset="0.369182"
         id="stop412" /><stop
         style="stop-opacity:1;stop-color:#ba225b"
         offset="0.62191149"
         id="stop414" /><stop
         style="stop-opacity:1;stop-color:#272525"
         offset="1"
         id="stop416" /></linearGradient><clipPath
       clipPathUnits="userSpaceOnUse"
       id="clipPath428"><path
         d="m 14950.5,4633.89 c -69.3,-56.85 -171.6,-46.71 -228.5,22.65 -56.8,69.36 -46.7,171.67 22.7,228.53 69.3,56.85 171.6,46.71 228.5,-22.65 56.8,-69.36 46.7,-171.68 -22.7,-228.53 z"
         id="path426" /></clipPath><linearGradient
       x1="0"
       y1="0"
       x2="1"
       y2="0"
       gradientUnits="userSpaceOnUse"
       gradientTransform="matrix(324.715,0,0,-324.715,14685.2,4759.48)"
       spreadMethod="pad"
       id="linearGradient438"><stop
         style="stop-opacity:1;stop-color:#ba225b"
         offset="0"
         id="stop430" /><stop
         style="stop-opacity:1;stop-color:#ba225b"
         offset="0.369182"
         id="stop432" /><stop
         style="stop-opacity:1;stop-color:#ba225b"
         offset="0.62191149"
         id="stop434" /><stop
         style="stop-opacity:1;stop-color:#272525"
         offset="1"
         id="stop436" /></linearGradient><clipPath
       clipPathUnits="userSpaceOnUse"
       id="clipPath448"><path
         d="m 14847.5,4847.19 c -19.6,0 -39.2,-6.49 -55.5,-19.84 -37.4,-30.67 -42.9,-86.07 -12.3,-123.5 14.9,-18.13 35.9,-29.38 59.2,-31.69 23.3,-2.33 46.2,4.59 64.3,19.45 v 0 c 18.1,14.87 29.4,35.89 31.7,59.22 2.3,23.32 -4.6,46.15 -19.5,64.28 -17.3,21.14 -42.5,32.08 -67.9,32.08 z m 0.5,-324.75 c -7.9,0 -15.8,0.39 -23.8,1.18 -63,6.24 -119.8,36.65 -159.9,85.61 -40.1,48.97 -58.8,110.63 -52.5,173.63 6.2,63 36.6,119.8 85.6,159.93 101,82.85 250.6,68.01 333.5,-33.06 40.1,-48.96 58.7,-110.62 52.5,-173.62 -6.2,-63.01 -36.6,-119.8 -85.6,-159.94 -42.8,-35.05 -95.2,-53.73 -149.8,-53.73 z"
         id="path446" /></clipPath><linearGradient
       x1="0"
       y1="0"
       x2="1"
       y2="0"
       gradientUnits="userSpaceOnUse"
       gradientTransform="matrix(473.991,0,0,-473.991,14610.6,4759.42)"
       spreadMethod="pad"
       id="linearGradient458"><stop
         style="stop-opacity:1;stop-color:#ba225b"
         offset="0"
         id="stop450" /><stop
         style="stop-opacity:1;stop-color:#ba225b"
         offset="0.369182"
         id="stop452" /><stop
         style="stop-opacity:1;stop-color:#ba225b"
         offset="0.62191149"
         id="stop454" /><stop
         style="stop-opacity:1;stop-color:#272525"
         offset="1"
         id="stop456" /></linearGradient><clipPath
       clipPathUnits="userSpaceOnUse"
       id="clipPath468"><path
         d="m 15193,2451.98 c -69.3,-56.85 -171.6,-46.7 -228.5,22.65 -56.8,69.36 -46.7,171.68 22.7,228.53 69.3,56.85 171.6,46.71 228.5,-22.65 56.8,-69.36 46.7,-171.68 -22.7,-228.53 z"
         id="path466" /></clipPath><linearGradient
       x1="0"
       y1="0"
       x2="1"
       y2="0"
       gradientUnits="userSpaceOnUse"
       gradientTransform="matrix(324.715,0,0,-324.715,14927.8,2577.57)"
       spreadMethod="pad"
       id="linearGradient478"><stop
         style="stop-opacity:1;stop-color:#ba225b"
         offset="0"
         id="stop470" /><stop
         style="stop-opacity:1;stop-color:#ba225b"
         offset="0.369182"
         id="stop472" /><stop
         style="stop-opacity:1;stop-color:#ba225b"
         offset="0.62191149"
         id="stop474" /><stop
         style="stop-opacity:1;stop-color:#272525"
         offset="1"
         id="stop476" /></linearGradient><clipPath
       clipPathUnits="userSpaceOnUse"
       id="clipPath488"><path
         d="m 15089.9,2665.33 c -20.2,0 -39.6,-6.91 -55.4,-19.89 -37.4,-30.68 -42.9,-86.07 -12.2,-123.5 30.6,-37.41 86,-42.9 123.4,-12.24 v 0 c 37.4,30.68 42.9,86.08 12.3,123.5 -14.9,18.13 -35.9,29.38 -59.2,31.69 -3,0.3 -5.9,0.44 -8.9,0.44 z m 0.4,-324.67 c -68.6,0 -136.7,29.57 -183.5,86.66 -40.1,48.97 -58.7,110.63 -52.5,173.62 6.2,63.01 36.6,119.81 85.6,159.94 48.9,40.14 110.6,58.78 173.6,52.55 63,-6.24 119.8,-36.65 159.9,-85.61 40.1,-48.96 58.8,-110.63 52.5,-173.62 -6.2,-63.01 -36.6,-119.8 -85.6,-159.94 v 0 c -43.9,-36.05 -97.1,-53.6 -150,-53.6 z"
         id="path486" /></clipPath><linearGradient
       x1="0"
       y1="0"
       x2="1"
       y2="0"
       gradientUnits="userSpaceOnUse"
       gradientTransform="matrix(473.99,0,0,-473.99,14853.1,2577.63)"
       spreadMethod="pad"
       id="linearGradient498"><stop
         style="stop-opacity:1;stop-color:#ba225b"
         offset="0"
         id="stop490" /><stop
         style="stop-opacity:1;stop-color:#ba225b"
         offset="0.369182"
         id="stop492" /><stop
         style="stop-opacity:1;stop-color:#ba225b"
         offset="0.62191149"
         id="stop494" /><stop
         style="stop-opacity:1;stop-color:#272525"
         offset="1"
         id="stop496" /></linearGradient><clipPath
       clipPathUnits="userSpaceOnUse"
       id="clipPath508"><path
         d="m 15657.3,1616.21 c -69.4,-56.85 -171.7,-46.71 -228.5,22.65 -56.8,69.36 -46.7,171.67 22.6,228.52 69.4,56.86 171.7,46.72 228.5,-22.64 56.9,-69.36 46.7,-171.68 -22.6,-228.53 z"
         id="path506" /></clipPath><linearGradient
       x1="0"
       y1="0"
       x2="1"
       y2="0"
       gradientUnits="userSpaceOnUse"
       gradientTransform="matrix(324.715,0,0,-324.715,15392,1741.8)"
       spreadMethod="pad"
       id="linearGradient518"><stop
         style="stop-opacity:1;stop-color:#ba225b"
         offset="0"
         id="stop510" /><stop
         style="stop-opacity:1;stop-color:#ba225b"
         offset="0.369182"
         id="stop512" /><stop
         style="stop-opacity:1;stop-color:#ba225b"
         offset="0.62191149"
         id="stop514" /><stop
         style="stop-opacity:1;stop-color:#272525"
         offset="1"
         id="stop516" /></linearGradient><clipPath
       clipPathUnits="userSpaceOnUse"
       id="clipPath528"><path
         d="m 15554.2,1829.56 c -20.2,0 -39.6,-6.92 -55.4,-19.9 -18.2,-14.85 -29.4,-35.88 -31.7,-59.21 -2.4,-23.32 4.6,-46.15 19.4,-64.28 30.7,-37.41 86.1,-42.9 123.5,-12.24 v 0 c 37.4,30.67 42.9,86.08 12.2,123.49 -14.8,18.13 -35.9,29.39 -59.2,31.7 -2.9,0.3 -5.9,0.44 -8.8,0.44 z m 0.4,-324.68 c -68.6,0 -136.7,29.57 -183.5,86.66 -40.1,48.97 -58.8,110.63 -52.5,173.63 6.2,63.01 36.6,119.81 85.5,159.93 49,40.14 110.6,58.78 173.6,52.56 63,-6.24 119.8,-36.65 159.9,-85.61 40.2,-48.96 58.8,-110.63 52.6,-173.63 -6.3,-63 -36.7,-119.8 -85.6,-159.93 v 0 c -44,-36.05 -97.2,-53.61 -150,-53.61 z"
         id="path526" /></clipPath><linearGradient
       x1="0"
       y1="0"
       x2="1"
       y2="0"
       gradientUnits="userSpaceOnUse"
       gradientTransform="matrix(473.991,0,0,-473.991,15317.4,1741.86)"
       spreadMethod="pad"
       id="linearGradient538"><stop
         style="stop-opacity:1;stop-color:#ba225b"
         offset="0"
         id="stop530" /><stop
         style="stop-opacity:1;stop-color:#ba225b"
         offset="0.369182"
         id="stop532" /><stop
         style="stop-opacity:1;stop-color:#ba225b"
         offset="0.62191149"
         id="stop534" /><stop
         style="stop-opacity:1;stop-color:#272525"
         offset="1"
         id="stop536" /></linearGradient><clipPath
       clipPathUnits="userSpaceOnUse"
       id="clipPath548"><path
         d="m 14516.3,5481.99 c -69.4,-56.85 -171.7,-46.71 -228.5,22.65 -56.9,69.36 -46.7,171.68 22.6,228.53 69.4,56.85 171.7,46.71 228.5,-22.65 56.8,-69.36 46.7,-171.68 -22.6,-228.53 z"
         id="path546" /></clipPath><linearGradient
       x1="0"
       y1="0"
       x2="1"
       y2="0"
       gradientUnits="userSpaceOnUse"
       gradientTransform="matrix(324.715,0,0,-324.715,14251,5607.58)"
       spreadMethod="pad"
       id="linearGradient558"><stop
         style="stop-opacity:1;stop-color:#ba225b"
         offset="0"
         id="stop550" /><stop
         style="stop-opacity:1;stop-color:#ba225b"
         offset="0.369182"
         id="stop552" /><stop
         style="stop-opacity:1;stop-color:#ba225b"
         offset="0.62191149"
         id="stop554" /><stop
         style="stop-opacity:1;stop-color:#272525"
         offset="1"
         id="stop556" /></linearGradient><clipPath
       clipPathUnits="userSpaceOnUse"
       id="clipPath568"><path
         d="m 14413.3,5695.29 c -19.6,0 -39.3,-6.49 -55.6,-19.84 -18.1,-14.86 -29.4,-35.89 -31.7,-59.21 -2.3,-23.33 4.6,-46.16 19.5,-64.29 14.8,-18.12 35.9,-29.38 59.2,-31.69 23.3,-2.31 46.1,4.59 64.3,19.45 v 0 c 37.4,30.68 42.9,86.08 12.2,123.5 -17.3,21.14 -42.5,32.08 -67.9,32.08 z m 0.5,-324.75 c -7.9,0 -15.9,0.39 -23.8,1.18 -63,6.24 -119.8,36.65 -159.9,85.61 -40.2,48.96 -58.8,110.63 -52.6,173.62 6.3,63.01 36.7,119.81 85.6,159.94 101.1,82.85 250.7,68.01 333.5,-33.06 82.8,-101.08 68,-250.71 -33,-333.56 -42.8,-35.05 -95.3,-53.73 -149.8,-53.73 z"
         id="path566" /></clipPath><linearGradient
       x1="0"
       y1="0"
       x2="1"
       y2="0"
       gradientUnits="userSpaceOnUse"
       gradientTransform="matrix(473.866,0,0,-473.866,14176.3,5607.52)"
       spreadMethod="pad"
       id="linearGradient578"><stop
         style="stop-opacity:1;stop-color:#ba225b"
         offset="0"
         id="stop570" /><stop
         style="stop-opacity:1;stop-color:#ba225b"
         offset="0.369182"
         id="stop572" /><stop
         style="stop-opacity:1;stop-color:#ba225b"
         offset="0.62191149"
         id="stop574" /><stop
         style="stop-opacity:1;stop-color:#272525"
         offset="1"
         id="stop576" /></linearGradient><clipPath
       clipPathUnits="userSpaceOnUse"
       id="clipPath588"><path
         d="m 13777.4,6019.95 c -69.4,-56.85 -171.7,-46.72 -228.5,22.64 -56.9,69.36 -46.7,171.68 22.6,228.53 69.4,56.86 171.7,46.71 228.5,-22.65 56.8,-69.36 46.7,-171.67 -22.6,-228.52 z"
         id="path586" /></clipPath><linearGradient
       x1="0"
       y1="0"
       x2="1"
       y2="0"
       gradientUnits="userSpaceOnUse"
       gradientTransform="matrix(324.715,0,0,-324.715,13512.1,6145.53)"
       spreadMethod="pad"
       id="linearGradient598"><stop
         style="stop-opacity:1;stop-color:#ba225b"
         offset="0"
         id="stop590" /><stop
         style="stop-opacity:1;stop-color:#ba225b"
         offset="0.369182"
         id="stop592" /><stop
         style="stop-opacity:1;stop-color:#ba225b"
         offset="0.62191149"
         id="stop594" /><stop
         style="stop-opacity:1;stop-color:#272525"
         offset="1"
         id="stop596" /></linearGradient><clipPath
       clipPathUnits="userSpaceOnUse"
       id="clipPath608"><path
         d="m 13674.4,6233.25 c -19.6,0 -39.3,-6.5 -55.6,-19.85 -37.4,-30.67 -42.9,-86.07 -12.2,-123.49 30.6,-37.42 86,-42.92 123.5,-12.24 37.4,30.67 42.9,86.07 12.2,123.49 -17.3,21.14 -42.5,32.09 -67.9,32.09 z m 0.5,-324.76 c -7.9,0 -15.9,0.39 -23.8,1.18 -63,6.25 -119.8,36.65 -159.9,85.62 -40.2,48.96 -58.8,110.62 -52.6,173.62 6.3,63 36.7,119.8 85.6,159.93 49,40.13 110.6,58.81 173.6,52.55 63,-6.24 119.8,-36.64 159.9,-85.6 40.1,-48.97 58.8,-110.63 52.5,-173.63 -6.2,-63 -36.6,-119.8 -85.5,-159.93 -42.8,-35.06 -95.3,-53.74 -149.8,-53.74 z"
         id="path606" /></clipPath><linearGradient
       x1="0"
       y1="0"
       x2="1"
       y2="0"
       gradientUnits="userSpaceOnUse"
       gradientTransform="matrix(473.991,0,0,-473.991,13437.4,6145.54)"
       spreadMethod="pad"
       id="linearGradient618"><stop
         style="stop-opacity:1;stop-color:#ba225b"
         offset="0"
         id="stop610" /><stop
         style="stop-opacity:1;stop-color:#ba225b"
         offset="0.369182"
         id="stop612" /><stop
         style="stop-opacity:1;stop-color:#ba225b"
         offset="0.62191149"
         id="stop614" /><stop
         style="stop-opacity:1;stop-color:#272525"
         offset="1"
         id="stop616" /></linearGradient><clipPath
       clipPathUnits="userSpaceOnUse"
       id="clipPath628"><path
         d="m 12878.3,6306.07 c -69.4,-56.85 -171.7,-46.71 -228.5,22.65 -56.8,69.36 -46.7,171.67 22.6,228.52 69.4,56.85 171.7,46.72 228.5,-22.64 56.9,-69.36 46.7,-171.68 -22.6,-228.53 z"
         id="path626" /></clipPath><linearGradient
       x1="0"
       y1="0"
       x2="1"
       y2="0"
       gradientUnits="userSpaceOnUse"
       gradientTransform="matrix(324.715,0,0,-324.715,12613,6431.66)"
       spreadMethod="pad"
       id="linearGradient638"><stop
         style="stop-opacity:1;stop-color:#ba225b"
         offset="0"
         id="stop630" /><stop
         style="stop-opacity:1;stop-color:#ba225b"
         offset="0.369182"
         id="stop632" /><stop
         style="stop-opacity:1;stop-color:#ba225b"
         offset="0.62191149"
         id="stop634" /><stop
         style="stop-opacity:1;stop-color:#272525"
         offset="1"
         id="stop636" /></linearGradient><clipPath
       clipPathUnits="userSpaceOnUse"
       id="clipPath648"><path
         d="m 12775.2,6519.42 c -20.2,0 -39.6,-6.92 -55.5,-19.9 -37.4,-30.67 -42.9,-86.07 -12.2,-123.5 30.7,-37.42 86.1,-42.89 123.5,-12.23 v 0.01 c 18.1,14.85 29.4,35.88 31.7,59.2 2.3,23.32 -4.6,46.16 -19.5,64.28 -14.8,18.13 -35.9,29.39 -59.2,31.7 -2.9,0.29 -5.9,0.44 -8.8,0.44 z m 0.4,-324.68 c -68.6,0 -136.7,29.57 -183.5,86.66 -40.1,48.97 -58.8,110.63 -52.6,173.63 6.3,63 36.7,119.8 85.6,159.93 49,40.13 110.6,58.8 173.6,52.56 63,-6.24 119.8,-36.65 159.9,-85.61 40.2,-48.96 58.8,-110.63 52.6,-173.63 -6.3,-63 -36.7,-119.8 -85.6,-159.93 -44,-36.05 -97.2,-53.61 -150,-53.61 z"
         id="path646" /></clipPath><linearGradient
       x1="0"
       y1="0"
       x2="1"
       y2="0"
       gradientUnits="userSpaceOnUse"
       gradientTransform="matrix(473.993,0,0,-473.993,12538.4,6431.72)"
       spreadMethod="pad"
       id="linearGradient658"><stop
         style="stop-opacity:1;stop-color:#ba225b"
         offset="0"
         id="stop650" /><stop
         style="stop-opacity:1;stop-color:#ba225b"
         offset="0.369182"
         id="stop652" /><stop
         style="stop-opacity:1;stop-color:#ba225b"
         offset="0.62191149"
         id="stop654" /><stop
         style="stop-opacity:1;stop-color:#272525"
         offset="1"
         id="stop656" /></linearGradient><clipPath
       clipPathUnits="userSpaceOnUse"
       id="clipPath668"><path
         d="m 11271.3,6238.45 c -69.3,-56.85 -171.6,-46.71 -228.5,22.66 -56.8,69.35 -46.7,171.66 22.7,228.52 69.3,56.85 171.6,46.71 228.4,-22.65 56.9,-69.36 46.7,-171.68 -22.6,-228.53 z"
         id="path666" /></clipPath><linearGradient
       x1="0"
       y1="0"
       x2="1"
       y2="0"
       gradientUnits="userSpaceOnUse"
       gradientTransform="matrix(324.715,0,0,-324.715,11006,6364.04)"
       spreadMethod="pad"
       id="linearGradient678"><stop
         style="stop-opacity:1;stop-color:#ba225b"
         offset="0"
         id="stop670" /><stop
         style="stop-opacity:1;stop-color:#ba225b"
         offset="0.369182"
         id="stop672" /><stop
         style="stop-opacity:1;stop-color:#ba225b"
         offset="0.62191149"
         id="stop674" /><stop
         style="stop-opacity:1;stop-color:#272525"
         offset="1"
         id="stop676" /></linearGradient><clipPath
       clipPathUnits="userSpaceOnUse"
       id="clipPath688"><path
         d="m 11168.3,6451.76 c -19.6,0 -39.3,-6.5 -55.5,-19.85 -37.4,-30.67 -42.9,-86.07 -12.3,-123.5 30.7,-37.42 86.1,-42.9 123.5,-12.23 v 0 c 18.1,14.86 29.4,35.88 31.7,59.21 2.3,23.32 -4.6,46.15 -19.5,64.28 -17.3,21.14 -42.5,32.09 -67.9,32.09 z m 0.3,-324.63 c -68.6,0 -136.7,29.57 -183.5,86.66 -82.8,101.08 -68,250.71 33.1,333.56 101,82.84 250.6,68.01 333.5,-33.06 40.1,-48.96 58.7,-110.62 52.5,-173.62 -6.2,-63.01 -36.6,-119.8 -85.6,-159.94 v 0 c -44,-36.04 -97.2,-53.6 -150,-53.6 z"
         id="path686" /></clipPath><linearGradient
       x1="0"
       y1="0"
       x2="1"
       y2="0"
       gradientUnits="userSpaceOnUse"
       gradientTransform="matrix(473.864,0,0,-473.864,10931.5,6364.04)"
       spreadMethod="pad"
       id="linearGradient698"><stop
         style="stop-opacity:1;stop-color:#ba225b"
         offset="0"
         id="stop690" /><stop
         style="stop-opacity:1;stop-color:#ba225b"
         offset="0.369182"
         id="stop692" /><stop
         style="stop-opacity:1;stop-color:#ba225b"
         offset="0.62191149"
         id="stop694" /><stop
         style="stop-opacity:1;stop-color:#272525"
         offset="1"
         id="stop696" /></linearGradient><clipPath
       clipPathUnits="userSpaceOnUse"
       id="clipPath708"><path
         d="m 10488.7,6633.26 c -69.3,-56.86 -171.6,-46.72 -228.5,22.64 -56.8,69.37 -46.7,171.68 22.7,228.53 69.3,56.85 171.6,46.71 228.5,-22.65 56.8,-69.36 46.7,-171.67 -22.7,-228.52 z"
         id="path706" /></clipPath><linearGradient
       x1="0"
       y1="0"
       x2="1"
       y2="0"
       gradientUnits="userSpaceOnUse"
       gradientTransform="matrix(324.715,0,0,-324.715,10223.4,6758.84)"
       spreadMethod="pad"
       id="linearGradient718"><stop
         style="stop-opacity:1;stop-color:#ba225b"
         offset="0"
         id="stop710" /><stop
         style="stop-opacity:1;stop-color:#ba225b"
         offset="0.369182"
         id="stop712" /><stop
         style="stop-opacity:1;stop-color:#ba225b"
         offset="0.62191149"
         id="stop714" /><stop
         style="stop-opacity:1;stop-color:#272525"
         offset="1"
         id="stop716" /></linearGradient><clipPath
       clipPathUnits="userSpaceOnUse"
       id="clipPath728"><path
         d="m 10385.6,6846.6 c -20.2,0 -39.6,-6.91 -55.4,-19.89 -37.4,-30.67 -42.9,-86.07 -12.3,-123.5 30.7,-37.42 86.1,-42.91 123.5,-12.23 37.4,30.67 42.9,86.07 12.2,123.49 -14.8,18.13 -35.8,29.38 -59.2,31.7 -2.9,0.29 -5.8,0.43 -8.8,0.43 z m 0.4,-324.67 c -68.6,0 -136.7,29.57 -183.5,86.66 -40.1,48.97 -58.8,110.63 -52.5,173.63 6.2,63 36.6,119.8 85.6,159.93 48.9,40.13 110.5,58.82 173.6,52.55 62.9,-6.24 119.7,-36.64 159.9,-85.61 82.8,-101.07 68,-250.71 -33.1,-333.56 v 0 c -44,-36.04 -97.1,-53.6 -150,-53.6 z"
         id="path726" /></clipPath><linearGradient
       x1="0"
       y1="0"
       x2="1"
       y2="0"
       gradientUnits="userSpaceOnUse"
       gradientTransform="matrix(473.867,0,0,-473.867,10148.8,6758.91)"
       spreadMethod="pad"
       id="linearGradient738"><stop
         style="stop-opacity:1;stop-color:#ba225b"
         offset="0"
         id="stop730" /><stop
         style="stop-opacity:1;stop-color:#ba225b"
         offset="0.369182"
         id="stop732" /><stop
         style="stop-opacity:1;stop-color:#ba225b"
         offset="0.62191149"
         id="stop734" /><stop
         style="stop-opacity:1;stop-color:#272525"
         offset="1"
         id="stop736" /></linearGradient><clipPath
       clipPathUnits="userSpaceOnUse"
       id="clipPath748"><path
         d="m 13821.4,3470.76 c -69.4,-56.85 -171.7,-46.71 -228.5,22.65 -56.9,69.36 -46.7,171.68 22.6,228.53 69.4,56.85 171.7,46.71 228.5,-22.65 56.8,-69.36 46.7,-171.67 -22.6,-228.53 z"
         id="path746" /></clipPath><linearGradient
       x1="0"
       y1="0"
       x2="1"
       y2="0"
       gradientUnits="userSpaceOnUse"
       gradientTransform="matrix(324.715,0,0,-324.715,13556.1,3596.35)"
       spreadMethod="pad"
       id="linearGradient756"><stop
         style="stop-opacity:1;stop-color:#364973"
         offset="0"
         id="stop750" /><stop
         style="stop-opacity:1;stop-color:#364973"
         offset="0.00316885"
         id="stop752" /><stop
         style="stop-opacity:1;stop-color:#272525"
         offset="1"
         id="stop754" /></linearGradient><clipPath
       clipPathUnits="userSpaceOnUse"
       id="clipPath766"><path
         d="m 13718.4,3684.07 c -19.6,0 -39.3,-6.5 -55.6,-19.85 -37.4,-30.67 -42.9,-86.07 -12.2,-123.5 30.7,-37.42 86.1,-42.9 123.5,-12.23 v 0 c 18.1,14.86 29.3,35.88 31.7,59.21 2.3,23.32 -4.6,46.15 -19.5,64.28 -17.3,21.14 -42.5,32.09 -67.9,32.09 z m 0.3,-324.63 c -68.7,0 -136.7,29.57 -183.5,86.66 -82.9,101.08 -68,250.71 33,333.56 101.1,82.84 250.7,68.02 333.5,-33.06 40.1,-48.96 58.8,-110.62 52.6,-173.62 -6.3,-63.01 -36.7,-119.8 -85.6,-159.94 v 0 c -44,-36.04 -97.2,-53.6 -150,-53.6 z"
         id="path764" /></clipPath><linearGradient
       x1="0"
       y1="0"
       x2="1"
       y2="0"
       gradientUnits="userSpaceOnUse"
       gradientTransform="matrix(473.865,0,0,-473.865,13481.6,3596.35)"
       spreadMethod="pad"
       id="linearGradient774"><stop
         style="stop-opacity:1;stop-color:#364973"
         offset="0"
         id="stop768" /><stop
         style="stop-opacity:1;stop-color:#364973"
         offset="0.00316885"
         id="stop770" /><stop
         style="stop-opacity:1;stop-color:#272525"
         offset="1"
         id="stop772" /></linearGradient><clipPath
       clipPathUnits="userSpaceOnUse"
       id="clipPath786"><path
         d="m 16177.3,6406.62 c -144.9,6.71 -256.9,129.61 -250.2,274.51 6.7,144.9 129.6,256.93 274.4,250.23 144.9,-6.71 256.9,-129.61 250.2,-274.51 -6.7,-144.9 -129.6,-256.93 -274.4,-250.23 z"
         id="path784" /></clipPath><linearGradient
       x1="0"
       y1="0"
       x2="1"
       y2="0"
       gradientUnits="userSpaceOnUse"
       gradientTransform="matrix(405.029,-527.034,-527.034,-405.029,16019.5,6890.09)"
       spreadMethod="pad"
       id="linearGradient796"><stop
         style="stop-opacity:1;stop-color:#ba225b"
         offset="0"
         id="stop788" /><stop
         style="stop-opacity:1;stop-color:#ba225b"
         offset="0.369182"
         id="stop790" /><stop
         style="stop-opacity:1;stop-color:#ba225b"
         offset="0.62191149"
         id="stop792" /><stop
         style="stop-opacity:1;stop-color:#272525"
         offset="1"
         id="stop794" /></linearGradient><clipPath
       clipPathUnits="userSpaceOnUse"
       id="clipPath806"><path
         d="m 16657.6,5674.92 c -103.3,4.78 -183.1,92.36 -178.3,195.62 4.8,103.26 92.3,183.09 195.6,178.31 103.2,-4.78 183,-92.36 178.2,-195.62 -4.7,-103.25 -92.3,-183.08 -195.5,-178.31 z"
         id="path804" /></clipPath><linearGradient
       x1="0"
       y1="0"
       x2="1"
       y2="0"
       gradientUnits="userSpaceOnUse"
       gradientTransform="matrix(288.625,-375.566,-375.566,-288.625,16545.1,6019.44)"
       spreadMethod="pad"
       id="linearGradient816"><stop
         style="stop-opacity:1;stop-color:#ba225b"
         offset="0"
         id="stop808" /><stop
         style="stop-opacity:1;stop-color:#ba225b"
         offset="0.369182"
         id="stop810" /><stop
         style="stop-opacity:1;stop-color:#ba225b"
         offset="0.62191149"
         id="stop812" /><stop
         style="stop-opacity:1;stop-color:#272525"
         offset="1"
         id="stop814" /></linearGradient><clipPath
       clipPathUnits="userSpaceOnUse"
       id="clipPath826"><path
         d="m 16909.6,6994.04 c -173.5,8.03 -307.6,155.2 -299.6,328.72 8,173.52 155.2,307.67 328.7,299.64 173.4,-8.03 307.6,-155.21 299.5,-328.72 -8,-173.52 -155.1,-307.67 -328.6,-299.64 z"
         id="path824" /></clipPath><linearGradient
       x1="0"
       y1="0"
       x2="1"
       y2="0"
       gradientUnits="userSpaceOnUse"
       gradientTransform="matrix(485.017,-631.117,-631.117,-485.017,16720.6,7572.98)"
       spreadMethod="pad"
       id="linearGradient836"><stop
         style="stop-opacity:1;stop-color:#ba225b"
         offset="0"
         id="stop828" /><stop
         style="stop-opacity:1;stop-color:#ba225b"
         offset="0.369182"
         id="stop830" /><stop
         style="stop-opacity:1;stop-color:#ba225b"
         offset="0.62191149"
         id="stop832" /><stop
         style="stop-opacity:1;stop-color:#272525"
         offset="1"
         id="stop834" /></linearGradient><clipPath
       clipPathUnits="userSpaceOnUse"
       id="clipPath846"><path
         d="m 16019.1,4780.91 c -173.5,8.03 -307.6,155.2 -299.6,328.72 8.1,173.51 155.2,307.67 328.7,299.64 173.5,-8.03 307.6,-155.21 299.6,-328.72 -8.1,-173.52 -155.2,-307.67 -328.7,-299.64 z"
         id="path844" /></clipPath><linearGradient
       x1="0"
       y1="0"
       x2="1"
       y2="0"
       gradientUnits="userSpaceOnUse"
       gradientTransform="matrix(485.017,-631.117,-631.117,-485.017,15830.2,5359.85)"
       spreadMethod="pad"
       id="linearGradient856"><stop
         style="stop-opacity:1;stop-color:#ba225b"
         offset="0"
         id="stop848" /><stop
         style="stop-opacity:1;stop-color:#ba225b"
         offset="0.369182"
         id="stop850" /><stop
         style="stop-opacity:1;stop-color:#ba225b"
         offset="0.62191149"
         id="stop852" /><stop
         style="stop-opacity:1;stop-color:#272525"
         offset="1"
         id="stop854" /></linearGradient><clipPath
       clipPathUnits="userSpaceOnUse"
       id="clipPath868"><path
         d="m 12129.2,2822.49 c -20.1,143.65 80,276.42 223.6,296.56 143.6,20.13 276.4,-80 296.5,-223.65 20.1,-143.65 -80,-276.42 -223.6,-296.56 -143.6,-20.14 -276.4,79.99 -296.5,223.65 z"
         id="path866" /></clipPath><linearGradient
       x1="0"
       y1="0"
       x2="1"
       y2="0"
       gradientUnits="userSpaceOnUse"
       gradientTransform="matrix(525.258,0,0,-525.258,12126.6,2858.94)"
       spreadMethod="pad"
       id="linearGradient876"><stop
         style="stop-opacity:1;stop-color:#364973"
         offset="0"
         id="stop870" /><stop
         style="stop-opacity:1;stop-color:#364973"
         offset="0.00316885"
         id="stop872" /><stop
         style="stop-opacity:1;stop-color:#272525"
         offset="1"
         id="stop874" /></linearGradient><clipPath
       clipPathUnits="userSpaceOnUse"
       id="clipPath886"><path
         d="m 11498.8,2215.38 c -14.4,102.37 57,196.98 159.3,211.33 102.4,14.35 197,-57.01 211.3,-159.37 14.4,-102.37 -57,-196.98 -159.3,-211.33 -102.4,-14.35 -197,57 -211.3,159.37 z"
         id="path884" /></clipPath><linearGradient
       x1="0"
       y1="0"
       x2="1"
       y2="0"
       gradientUnits="userSpaceOnUse"
       gradientTransform="matrix(374.3,0,0,-374.3,11497,2241.36)"
       spreadMethod="pad"
       id="linearGradient894"><stop
         style="stop-opacity:1;stop-color:#364973"
         offset="0"
         id="stop888" /><stop
         style="stop-opacity:1;stop-color:#364973"
         offset="0.00316885"
         id="stop890" /><stop
         style="stop-opacity:1;stop-color:#272525"
         offset="1"
         id="stop892" /></linearGradient><clipPath
       clipPathUnits="userSpaceOnUse"
       id="clipPath904"><path
         d="m 12841.5,2210.94 c -24.1,172.02 95.8,331.02 267.8,355.13 172,24.11 330.9,-95.79 355,-267.82 24.1,-172.02 -95.8,-331.01 -267.7,-355.12 -172,-24.11 -331,95.79 -355.1,267.81 z"
         id="path902" /></clipPath><linearGradient
       x1="0"
       y1="0"
       x2="1"
       y2="0"
       gradientUnits="userSpaceOnUse"
       gradientTransform="matrix(628.989,0,0,-628.989,12838.4,2254.6)"
       spreadMethod="pad"
       id="linearGradient912"><stop
         style="stop-opacity:1;stop-color:#364973"
         offset="0"
         id="stop906" /><stop
         style="stop-opacity:1;stop-color:#364973"
         offset="0.00316885"
         id="stop908" /><stop
         style="stop-opacity:1;stop-color:#272525"
         offset="1"
         id="stop910" /></linearGradient><clipPath
       clipPathUnits="userSpaceOnUse"
       id="clipPath922"><path
         d="m 10502.5,2678.1 c -24.1,172.02 95.8,331.02 267.8,355.13 172,24.11 330.9,-95.79 355,-267.81 24.2,-172.02 -95.7,-331.02 -267.7,-355.13 -172,-24.11 -331,95.79 -355.1,267.81 z"
         id="path920" /></clipPath><linearGradient
       x1="0"
       y1="0"
       x2="1"
       y2="0"
       gradientUnits="userSpaceOnUse"
       gradientTransform="matrix(628.989,0,0,-628.989,10499.4,2721.76)"
       spreadMethod="pad"
       id="linearGradient930"><stop
         style="stop-opacity:1;stop-color:#364973"
         offset="0"
         id="stop924" /><stop
         style="stop-opacity:1;stop-color:#364973"
         offset="0.00316885"
         id="stop926" /><stop
         style="stop-opacity:1;stop-color:#272525"
         offset="1"
         id="stop928" /></linearGradient></defs><sodipodi:namedview
     id="namedview4"
     pagecolor="#ffffff"
     bordercolor="#666666"
     borderopacity="1.0"
     inkscape:pageshadow="2"
     inkscape:pageopacity="0.0"
     inkscape:pagecheckerboard="0" /><g
     id="g8"
     inkscape:groupmode="layer"
     inkscape:label="ink_ext_XXXXXX"
     transform="matrix(1.3333333,0,0,-1.3333333,0,1496)"><g
       id="g10"
       transform="scale(0.1)"><path
         d="M 18696.4,0 H 0 V 11220 H 18696.4 V 0"
         style="fill:#86c7db;fill-opacity:1;fill-rule:nonzero;stroke:none"
         id="path12" /><path
         d="M -0.0351563,4776.75 C 863.582,4114.63 1943.91,3721.14 3116.14,3721.14 c 2831.45,0 5126.79,2295.78 5126.79,5127.77 0,855.47 -209.44,1661.99 -579.84,2371.09 H 0 L -0.0351563,4776.75"
         style="fill:#78b1be;fill-opacity:1;fill-rule:nonzero;stroke:none"
         id="path14" /><path
         d="m 17198,4247.35 c 0,-1725.17 -1398.2,-3123.65 -3123.1,-3123.65 -1724.8,0 -3123.1,1398.48 -3123.1,3123.65 0,1725.17 1398.3,3123.69 3123.1,3123.69 1724.9,0 3123.1,-1398.52 3123.1,-3123.69"
         style="fill:#ffffff;fill-opacity:1;fill-rule:nonzero;stroke:none"
         id="path16" /><path
         d="m 18660.5,3896.5 -7,13.19 c 13.1,6.96 26.2,14.02 39.3,21.16 l 7.2,-13.08 c -13.2,-7.19 -26.3,-14.28 -39.5,-21.27"
         style="fill:#ffffff;fill-opacity:1;fill-rule:nonzero;stroke:none"
         id="path18" /><path
         d="m 17096,9780.27 -0.5,14.92 c 29.8,0.96 60.1,1.51 90,1.62 l 0.1,-14.92 c -29.8,-0.12 -60,-0.66 -89.6,-1.62 z m 268.8,-2.74 c -29.7,1.56 -59.9,2.73 -89.6,3.45 l 0.4,14.92 c 29.8,-0.73 60.1,-1.89 90,-3.47 z m -447.7,-8.11 -1.3,14.86 c 29.7,2.66 59.9,4.92 89.7,6.74 l 1,-14.91 c -29.8,-1.8 -59.8,-4.05 -89.4,-6.69 z m 626.4,-6.44 c -29.7,3.27 -59.7,6.14 -89.2,8.55 l 1.2,14.87 c 29.7,-2.41 59.8,-5.3 89.6,-8.59 z m -804.4,-14.63 -2.1,14.77 c 29.5,4.36 59.6,8.36 89.2,11.87 l 1.8,-14.83 c -29.5,-3.49 -59.4,-7.46 -88.9,-11.81 z m 981.9,-10.15 c -29.4,4.97 -59.2,9.56 -88.6,13.66 l 2.1,14.79 c 29.5,-4.12 59.5,-8.74 89,-13.73 z m -1158.3,-21.12 -3,14.61 c 29.2,6.06 59,11.78 88.4,17 l 2.6,-14.7 c -29.3,-5.19 -58.9,-10.88 -88,-16.91 z m 1334.1,-13.86 c -28.9,6.65 -58.4,12.96 -87.6,18.76 l 2.9,14.64 c 29.3,-5.83 58.9,-12.17 88.1,-18.85 z m -1508.5,-27.56 -3.8,14.41 c 28.8,7.73 58.1,15.16 87.3,22.08 l 3.4,-14.52 c -29,-6.89 -58.2,-14.28 -86.9,-21.97 z m 1682,-17.52 c -28.5,8.3 -57.6,16.31 -86.4,23.8 l 3.7,14.44 c 29,-7.52 58.2,-15.57 86.9,-23.91 z m -1853.6,-33.95 -4.7,14.17 c 28.3,9.39 57.2,18.51 85.9,27.11 l 4.2,-14.3 c -28.5,-8.56 -57.2,-17.63 -85.4,-26.98 z m 2024.2,-21.12 c -28,9.95 -56.6,19.63 -84.9,28.77 l 4.6,14.2 c 28.4,-9.18 57.1,-18.91 85.3,-28.91 z m -2192.6,-40.2 -5.5,13.87 c 27.7,11.02 56,21.8 84.1,32.04 l 5.1,-14.03 c -27.9,-10.18 -56.1,-20.91 -83.7,-31.88 z m 2359.7,-24.66 c -27.5,11.58 -55.4,22.9 -83.1,33.64 l 5.4,13.91 c 27.8,-10.79 55.9,-22.16 83.5,-33.8 z m -2523.8,-46.06 -6.3,13.53 c 27.1,12.6 54.7,24.96 82,36.73 l 5.9,-13.71 c -27.2,-11.71 -54.6,-24.01 -81.6,-36.55 z m 2686.8,-28.36 c -26.7,13.16 -54,26.08 -81,38.39 l 6.2,13.57 c 27.1,-12.36 54.5,-25.34 81.4,-38.57 z m -2846.5,-51.75 -7.1,13.14 c 26.3,14.18 53.2,28.11 79.7,41.41 l 6.7,-13.34 c -26.4,-13.24 -53.1,-27.11 -79.3,-41.21 z m -155.1,-89.22 -7.8,12.71 c 25.5,15.62 51.4,31.08 77.3,45.95 l 7.4,-12.93 c -25.7,-14.8 -51.6,-30.18 -76.9,-45.73 z m -149.7,-98.01 -8.5,12.25 c 24.6,17.09 49.6,34.03 74.5,50.32 l 8.2,-12.49 c -24.8,-16.22 -49.7,-33.07 -74.2,-50.08 z m -143.9,-106.47 -9.2,11.74 c 23.4,18.38 47.5,36.73 71.6,54.54 l 8.8,-12.01 c -23.9,-17.71 -47.9,-35.97 -71.2,-54.27 z m -137.6,-114.57 -9.9,11.19 c 22.4,19.74 45.4,39.45 68.4,58.56 l 9.5,-11.47 c -22.8,-19.03 -45.7,-38.64 -68,-58.28 z m -130.9,-122.31 -10.5,10.62 c 21.2,21 43,41.99 64.9,62.38 l 10.2,-10.9 c -21.8,-20.3 -43.5,-41.19 -64.6,-62.1 z m -123.8,-129.62 -11.1,9.99 c 20,22.14 40.6,44.35 61.3,66.02 l 10.8,-10.3 c -20.6,-21.57 -41.1,-43.68 -61,-65.71 z m -116.2,-136.54 -11.6,9.35 c 18.7,23.31 38,46.67 57.4,69.43 l 11.3,-9.67 c -19.2,-22.66 -38.4,-45.9 -57.1,-69.11 z m -108.2,-143.02 -12.2,8.66 c 17.3,24.26 35.3,48.7 53.4,72.64 l 11.9,-9 c -18,-23.84 -35.9,-48.16 -53.1,-72.3 z m -99.9,-149.04 -12.6,7.95 c 15.9,25.31 32.4,50.75 49.1,75.61 l 12.4,-8.31 c -16.6,-24.74 -33,-50.06 -48.9,-75.25 z m -91.2,-154.61 -13,7.21 c 14.4,26.21 29.5,52.57 44.7,78.35 l 12.8,-7.58 c -15.1,-25.66 -30.1,-51.9 -44.5,-77.98 z m -82.1,-159.67 -13.5,6.44 c 13,27.06 26.5,54.25 40.2,80.83 l 13.2,-6.83 c -13.6,-26.45 -27,-53.51 -39.9,-80.44 z m -72.8,-164.24 -13.8,5.64 c 11.3,27.74 23.2,55.68 35.4,83.06 l 13.6,-6.04 c -12.1,-27.25 -23.9,-55.06 -35.2,-82.66 z m -63.2,-168.28 -14.1,4.83 c 9.7,28.3 20,56.9 30.5,85.02 l 14,-5.24 c -10.5,-27.99 -20.7,-56.46 -30.4,-84.61 z m -53.2,-171.45 -14.4,4.02 c 8,28.75 16.6,57.81 25.5,86.37 l 14.2,-4.43 c -8.8,-28.42 -17.3,-57.34 -25.3,-85.96 z m -43.1,-173.93 -14.6,3.17 c 6.3,29.2 13.2,58.71 20.4,87.71 l 14.5,-3.6 c -7.2,-28.86 -14,-58.22 -20.3,-87.28 z m -33,-176.14 -14.8,2.32 c 4.7,29.48 9.8,59.33 15.3,88.74 l 14.7,-2.75 c -5.5,-29.27 -10.6,-58.98 -15.2,-88.31 z m -22.8,-177.75 -14.9,1.48 c 3,29.81 6.4,59.91 10.2,89.46 l 14.8,-1.9 c -3.8,-29.41 -7.2,-59.37 -10.1,-89.04 z m -12.6,-178.76 -14.9,0.63 c 1.2,29.89 2.9,60.13 5,89.89 l 14.9,-1.04 c -2.1,-29.63 -3.8,-59.73 -5,-89.48 z M 14067.8,6619 c -0.2,15.53 -0.3,31.09 -0.3,46.69 0,14.47 0.1,28.93 0.3,43.35 l 14.9,-0.2 c -0.2,-14.36 -0.3,-28.75 -0.3,-43.15 0,-15.52 0.1,-31.01 0.3,-46.48 z m 7.7,-179.77 c -2.1,29.65 -3.8,59.9 -5.1,89.9 l 14.9,0.64 c 1.3,-29.86 3,-59.96 5.1,-89.48 z m 18,-179.15 c -3.8,29.72 -7.3,59.81 -10.3,89.45 l 14.9,1.49 c 2.9,-29.5 6.4,-59.45 10.2,-89.03 z m 28.2,-177.84 c -5.5,29.34 -10.7,59.18 -15.4,88.71 l 14.8,2.35 c 4.6,-29.39 9.8,-59.1 15.3,-88.29 z m 38.5,-175.91 c -7.3,28.95 -14.1,58.45 -20.5,87.68 l 14.5,3.18 c 6.4,-29.09 13.3,-58.44 20.4,-87.26 z m 48.5,-173.4 c -8.9,28.62 -17.5,57.67 -25.5,86.35 l 14.4,4.03 c 8,-28.55 16.5,-57.46 25.4,-85.94 z m 58.6,-170.29 c -10.5,27.9 -20.8,56.4 -30.5,84.72 l 14.1,4.85 c 9.7,-28.18 19.9,-56.55 30.3,-84.32 z m 68.1,-166.36 c -12.1,27.23 -23.9,55.01 -35.2,82.55 l 13.8,5.66 c 11.2,-27.41 23,-55.05 35.1,-82.15 z m 77.6,-161.96 c -13.6,26.42 -27.1,53.48 -40,80.44 l 13.5,6.44 c 12.8,-26.82 26.2,-53.75 39.8,-80.05 z m 86.8,-157.31 c -15.1,25.61 -30.1,51.87 -44.6,78.05 l 13.1,7.2 c 14.4,-26.05 29.3,-52.18 44.3,-77.67 z m 95.7,-152.15 c -16.6,24.8 -33.1,50.17 -49,75.4 l 12.7,7.94 c 15.8,-25.1 32.2,-50.35 48.7,-75.03 z m 104.4,-146.49 c -18,23.79 -36,48.19 -53.3,72.51 l 12.2,8.66 c 17.2,-24.21 35,-48.48 53,-72.17 z m 112.5,-140.33 c -19.2,22.68 -38.5,46.02 -57.3,69.36 l 11.7,9.35 c 18.6,-23.24 37.8,-46.47 57,-69.04 z m 120.5,-133.72 c -20.5,21.52 -41.1,43.73 -61.2,66.01 l 11.1,9.99 c 20,-22.17 40.5,-44.28 60.9,-65.69 z m 128,-126.66 c -21.8,20.37 -43.6,41.38 -64.9,62.42 l 10.5,10.61 c 21.2,-20.95 42.9,-41.85 64.6,-62.13 z m 135,-119.19 c -22.9,19.08 -45.9,38.81 -68.3,58.64 l 9.8,11.19 c 22.4,-19.74 45.3,-39.37 68.1,-58.36 z m 141.7,-111.3 c -24,17.77 -48.1,36.15 -71.6,54.64 l 9.2,11.74 c 23.4,-18.4 47.4,-36.7 71.3,-54.39 z m 147.9,-103.04 c -25,16.41 -50.2,33.39 -74.7,50.47 l 8.6,12.24 c 24.4,-17 49.4,-33.89 74.3,-50.22 z m 153.7,-94.4 c -26,14.93 -52.1,30.44 -77.6,46.11 l 7.9,12.71 c 25.3,-15.59 51.3,-31.03 77.1,-45.88 z m 158.9,-85.42 c -26.9,13.44 -53.8,27.43 -80.1,41.57 l 7,13.15 c 26.2,-14.08 53,-28 79.7,-41.38 z m 2700.8,-47.45 -6.2,13.57 c 27,12.35 54.2,25.29 81,38.47 l 6.6,-13.39 c -26.9,-13.24 -54.3,-26.25 -81.4,-38.65 z m -2537.2,-28.67 c -27.5,11.85 -55.3,24.26 -82.4,36.88 l 6.3,13.54 c 27,-12.57 54.6,-24.92 82,-36.71 z m 2371.4,-41.5 -5.5,13.91 c 27.8,10.79 55.7,22.14 83.1,33.72 l 5.8,-13.75 c -27.5,-11.64 -55.6,-23.03 -83.4,-33.88 z m -2203.5,-25.05 c -28.2,10.23 -56.6,21.02 -84.5,32.06 l 5.5,13.88 c 27.8,-11 56,-21.73 84.1,-31.9 z m 2033.8,-35.39 -4.6,14.2 c 28.3,9.16 56.8,18.87 84.9,28.85 l 5,-14.06 c -28.2,-10.03 -56.9,-19.78 -85.3,-28.99 z m -1862.6,-21.22 c -28.7,8.57 -57.6,17.65 -85.9,27.02 l 4.7,14.17 c 28.2,-9.32 57,-18.37 85.5,-26.89 z m 1689.7,-29.29 -3.7,14.45 c 28.8,7.51 57.8,15.55 86.3,23.88 l 4.2,-14.32 c -28.6,-8.38 -57.8,-16.45 -86.8,-24.01 z m -1515.7,-17.22 c -29.2,6.89 -58.5,14.29 -87.3,21.99 l 3.8,14.42 c 28.7,-7.67 57.9,-15.03 86.9,-21.89 z m 1340.2,-23.18 -2.9,14.64 c 29.2,5.84 58.7,12.18 87.6,18.84 l 3.4,-14.54 c -29.1,-6.7 -58.7,-13.07 -88.1,-18.94 z m -1163.9,-13.18 c -29.4,5.18 -59.1,10.86 -88.4,16.9 l 3,14.62 c 29.2,-6.01 58.8,-11.67 88,-16.83 z m 986.4,-17.01 -2.1,14.78 c 29.5,4.15 59.3,8.78 88.6,13.75 l 2.5,-14.71 c -29.4,-5 -59.3,-9.65 -89,-13.82 z m -808.2,-9.12 c -29.7,3.48 -59.7,7.45 -89.3,11.78 l 2.2,14.77 c 29.4,-4.31 59.3,-8.26 88.8,-11.72 z m 629.2,-10.81 -1.2,14.87 c 29.7,2.46 59.7,5.36 89.2,8.64 l 1.6,-14.83 c -29.6,-3.3 -59.7,-6.22 -89.6,-8.68 z m -449.8,-5.05 c -29.9,1.78 -60.1,4.02 -89.8,6.65 l 1.3,14.87 c 29.6,-2.62 59.6,-4.85 89.3,-6.61 z m 270,-4.61 -0.4,14.92 c 29.8,0.76 59.9,1.95 89.5,3.54 l 0.8,-14.91 c -29.7,-1.59 -60,-2.79 -89.9,-3.55 z m -90.1,-1 c -29.9,0.09 -60.2,0.6 -90,1.53 l 0.5,14.92 c 29.6,-0.93 59.8,-1.44 89.6,-1.53 l -0.1,-14.92"
         style="fill:#ffffff;fill-opacity:1;fill-rule:nonzero;stroke:none"
         id="path20" /><path
         d="m 18692.8,9400.52 c -13.1,7.15 -26.2,14.21 -39.3,21.17 l 7,13.19 c 13.2,-7 26.4,-14.09 39.5,-21.27 l -7.2,-13.09"
         style="fill:#ffffff;fill-opacity:1;fill-rule:nonzero;stroke:none"
         id="path22" /><path
         d="M 1590.02,1260.28 H 903.527 v 111.94 h 686.493 v -111.94"
         style="fill:#272425;fill-opacity:1;fill-rule:nonzero;stroke:none"
         id="path24" /><path
         d="m 1190.81,972.902 v 686.658 h 111.93 V 972.902 h -111.93"
         style="fill:#272425;fill-opacity:1;fill-rule:nonzero;stroke:none"
         id="path26" /><path
         d="m 10302.6,963.602 c -6.2,0 -11.2,5 -11.2,11.199 v 570.939 c 0,6.19 5,11.2 11.2,11.2 6.2,0 11.2,-5.01 11.2,-11.2 V 974.801 c 0,-6.199 -5,-11.199 -11.2,-11.199"
         style="fill:#272425;fill-opacity:1;fill-rule:nonzero;stroke:none"
         id="path28" /><path
         d="m 470.301,9282.12 c 0,8.96 -7.031,16.21 -15.985,16.21 -8.957,0 -16.203,-7.25 -16.203,-16.21 v -23.26 h 32.188 z m -64.59,-10.24 c 0,8.96 -7.246,16.21 -15.984,16.21 -8.954,0 -16.204,-7.25 -16.204,-16.21 v -13.02 h 32.188 z m -15.984,48.42 c 9.804,0 18.972,-2.99 26.644,-7.9 8.953,11.1 22.598,18.14 37.945,18.14 26.645,0 48.387,-21.76 48.387,-48.42 v -55.47 H 341.129 v 45.23 c 0,26.87 21.734,48.42 48.598,48.42"
         style="fill:#ffffff;fill-opacity:1;fill-rule:nonzero;stroke:none"
         id="path30" /><path
         d="m 388.66,9410.29 36.449,-13.01 v 26.24 z m 114.043,41.39 -45.191,-16.42 v -49.71 l 45.191,-16.42 v -34.35 l -161.574,58.45 v 34.34 l 161.574,58.45 v -34.34"
         style="fill:#ffffff;fill-opacity:1;fill-rule:nonzero;stroke:none"
         id="path32" /><path
         d="m 363.504,9622.51 23.023,-22.83 c -8.101,-8.53 -13.004,-20.26 -13.004,-32.84 0,-26.88 21.743,-48.64 48.391,-48.64 26.859,0 48.387,21.76 48.387,48.64 0,12.58 -4.903,24.31 -12.789,32.84 l 22.808,22.83 c 13.86,-14.51 22.383,-34.13 22.383,-55.67 0,-44.59 -36.238,-80.85 -80.789,-80.85 -44.551,0 -80.785,36.26 -80.785,80.85 0,21.54 8.523,41.16 22.375,55.67"
         style="fill:#ffffff;fill-opacity:1;fill-rule:nonzero;stroke:none"
         id="path34" /><path
         d="m 341.129,9637.4 v 32.22 h 66.078 l -66.078,50.55 v 40.53 l 76.519,-58.45 85.055,64.85 v -40.53 l -58.406,-44.58 15.984,-12.37 h 42.422 V 9637.4 H 341.129"
         style="fill:#ffffff;fill-opacity:1;fill-rule:nonzero;stroke:none"
         id="path36" /><path
         d="m 373.523,9923.84 h 129.18 v -32.43 h -129.18 v -45.43 h -32.394 v 123.29 h 32.394 v -45.43"
         style="fill:#ffffff;fill-opacity:1;fill-rule:nonzero;stroke:none"
         id="path38" /><path
         d="m 421.914,10010 c 26.859,0 48.602,21.7 48.602,48.6 0,26.7 -21.743,48.5 -48.602,48.5 -26.648,0 -48.391,-21.8 -48.391,-48.5 0,-26.9 21.743,-48.6 48.391,-48.6 z m 0,129.5 c 44.551,0 80.789,-36.3 80.789,-80.9 0,-44.6 -36.238,-80.83 -80.789,-80.83 -44.551,0 -80.785,36.23 -80.785,80.83 0,44.6 36.234,80.9 80.785,80.9"
         style="fill:#ffffff;fill-opacity:1;fill-rule:nonzero;stroke:none"
         id="path40" /><path
         d="m 341.129,10218.3 v 32.2 h 64.582 v 58.9 h -64.582 v 32.2 h 161.574 v -32.2 h -64.59 v -58.9 h 64.59 v -32.2 H 341.129"
         style="fill:#ffffff;fill-opacity:1;fill-rule:nonzero;stroke:none"
         id="path42" /><path
         d="m 421.914,10388.7 c 26.859,0 48.602,21.8 48.602,48.7 0,26.6 -21.743,48.4 -48.602,48.4 -26.648,0 -48.391,-21.8 -48.391,-48.4 0,-26.9 21.743,-48.7 48.391,-48.7 z m 0,129.5 c 44.551,0 80.789,-36.2 80.789,-80.8 0,-44.6 -36.238,-80.9 -80.789,-80.9 -44.551,0 -80.785,36.3 -80.785,80.9 0,44.6 36.234,80.8 80.785,80.8"
         style="fill:#ffffff;fill-opacity:1;fill-rule:nonzero;stroke:none"
         id="path44" /><path
         d="m 502.703,10597.8 -80.789,-32.5 h 80.789 v -32.2 H 341.129 v 34.8 l 118.09,47.3 -118.09,47.2 v 34.8 h 161.574 v -32.3 h -80.789 l 80.789,-32.4 v -34.7"
         style="fill:#ffffff;fill-opacity:1;fill-rule:nonzero;stroke:none"
         id="path46" /><path
         d="m 341.129,10712 v 97.5 h 32.394 v -65.2 h 32.188 v 65.2 h 32.402 v -65.2 h 32.188 v 65.2 h 32.402 V 10712 H 341.129"
         style="fill:#ffffff;fill-opacity:1;fill-rule:nonzero;stroke:none"
         id="path48" /><path
         d="m 420.156,8980.05 -90.468,90.48 c -4.372,4.38 -4.372,11.46 0,15.83 4.375,4.38 11.464,4.38 15.828,0 l 74.64,-74.65 74.637,74.65 c 4.367,4.38 11.457,4.38 15.832,0 4.367,-4.37 4.367,-11.45 0,-15.83 l -90.469,-90.48"
         style="fill:#ffffff;fill-opacity:1;fill-rule:nonzero;stroke:none"
         id="path50" /><path
         d="M 6765.34,8333.9 H 1951.98 v 268.7 h 4813.36 v -268.7"
         style="fill:#5b858e;fill-opacity:1;fill-rule:nonzero;stroke:none"
         id="path52" /><path
         d="M 5500.2,7509.17 H 1951.98 v 268.7 H 5500.2 v -268.7"
         style="fill:#5b858e;fill-opacity:1;fill-rule:nonzero;stroke:none"
         id="path54" /><path
         d="m 6026.98,6665.69 h -4075 v 268.71 h 4075 v -268.71"
         style="fill:#5b858e;fill-opacity:1;fill-rule:nonzero;stroke:none"
         id="path56" /><path
         d="m 8519.7,1173.4 c 4.63,34.7 4.63,76.43 4.63,136.66 0,159.86 -60.22,301.18 -224.67,301.18 -157.51,0 -220.05,-141.32 -220.05,-317.4 V 1173.4 Z m -692.57,0 v 115.81 c 0,185.34 -76.43,284.96 -192.25,284.96 -118.13,0 -180.67,-90.35 -180.67,-250.21 0,-76.45 4.64,-120.46 9.27,-150.56 z m -597.6,-349.9 c -18.53,92.699 -32.43,280.4 -32.43,456.44 0,215.46 20.85,347.52 88.03,461.04 57.9,108.89 164.45,187.65 305.74,187.65 138.98,0 268.69,-81.08 333.55,-257.15 h 4.63 c 48.64,178.39 182.98,310.44 384.5,310.44 141.3,0 252.48,-64.87 331.23,-162.17 90.34,-113.52 141.3,-303.5 141.3,-613.95 0,-173.7 -11.58,-303.499 -23.17,-382.3 H 7229.53"
         style="fill:#ffffff;fill-opacity:1;fill-rule:nonzero;stroke:none"
         id="path58" /><path
         d="M 7208.69,2577.25 H 8769.86 V 2222.79 H 7208.69 v 354.46"
         style="fill:#ffffff;fill-opacity:1;fill-rule:nonzero;stroke:none"
         id="path60" /><path
         d="m 7993.91,3184.19 c 305.75,0 521.16,143.64 521.16,379.95 0,238.62 -227,375.31 -530.43,375.31 -280.27,0 -521.16,-134.37 -521.16,-377.63 0,-238.62 226.99,-377.63 530.43,-377.63 z m -20.85,1128.25 c 511.9,0 822.28,-310.44 822.28,-766.84 0,-463.35 -349.76,-734.41 -794.49,-734.41 -467.88,0 -817.64,298.87 -817.64,759.9 0,479.56 359.02,741.35 789.85,741.35"
         style="fill:#ffffff;fill-opacity:1;fill-rule:nonzero;stroke:none"
         id="path62" /><path
         d="m 7208.69,4544.06 v 354.46 h 1264.69 v 620.89 h 296.48 V 4544.06 H 7208.69"
         style="fill:#ffffff;fill-opacity:1;fill-rule:nonzero;stroke:none"
         id="path64" /><path
         d="m 7993.91,5941 c 305.75,0 521.16,143.64 521.16,379.95 0,238.62 -227,375.31 -530.43,375.31 -280.27,0 -521.16,-134.37 -521.16,-377.63 0,-238.62 226.99,-377.63 530.43,-377.63 z m -20.85,1128.25 c 511.9,0 822.28,-310.44 822.28,-766.84 0,-463.35 -349.76,-734.41 -794.49,-734.41 -467.88,0 -817.64,298.87 -817.64,759.9 0,479.56 359.02,741.35 789.85,741.35"
         style="fill:#ffffff;fill-opacity:1;fill-rule:nonzero;stroke:none"
         id="path66" /><path
         d="m 8698.06,8605.19 c 37.06,-108.88 88.02,-315.08 88.02,-521.27 0,-284.95 -71.81,-491.15 -210.78,-634.78 -134.35,-143.64 -338.18,-222.41 -567.49,-220.1 -518.85,2.32 -815.34,379.95 -815.34,891.95 0,201.56 39.38,356.78 76.44,433.24 l 282.59,-74.14 c -37.06,-85.72 -67.18,-192.29 -67.18,-363.73 0,-294.23 166.78,-516.64 504.96,-516.64 321.96,0 511.9,201.56 511.9,491.16 0,81.08 -9.27,145.95 -23.17,173.75 h -326.6 v -240.94 h -275.63 v 581.5 h 822.28"
         style="fill:#ffffff;fill-opacity:1;fill-rule:nonzero;stroke:none"
         id="path68" /><path
         d="m 8769.86,9242.23 h -639.29 l -921.88,-493.47 v 403.12 l 375.23,159.85 c 113.5,48.65 196.89,81.09 298.8,120.47 v 4.63 c -97.28,34.75 -187.61,71.82 -298.8,118.16 l -375.23,157.54 v 396.17 l 910.3,-514.33 h 650.87 v -352.14"
         style="fill:#ffffff;fill-opacity:1;fill-rule:nonzero;stroke:none"
         id="path70" /><path
         d="m 17638.4,1692.5 c -23.6,0 -46.8,11.14 -61.3,31.93 -3.2,4.61 -329,467.14 -859.3,904.57 -309.7,255.43 -627.6,452.48 -944.9,585.67 -393.5,165.19 -787.3,232.02 -1170.5,198.61 -440.5,-38.39 -859.3,27.16 -1244.5,194.88 -355,154.53 -669.6,394.76 -909.8,694.7 -464.1,579.51 -613.8,1326.65 -400.5,1998.61 96,302.55 109.5,613.91 40.3,925.43 -55.9,251.12 -165.4,503.46 -325.5,750.01 -275.2,423.75 -608.4,686.07 -611.8,688.66 -32.5,25.34 -38.3,72.22 -13,104.72 25.3,32.5 72.2,38.35 104.7,13.05 14.3,-11.13 353.7,-277.72 642.7,-721.27 170.7,-261.9 287.8,-531.1 348,-800.14 75.7,-338.45 61.2,-676.78 -43.2,-1005.61 -198.1,-624.3 -58,-1319.69 374.8,-1860.17 225.1,-281.09 520,-506.26 852.8,-651.15 362.2,-157.67 756.6,-219.26 1172.1,-183.03 408.2,35.57 826.5,-35.26 1243.2,-210.54 331.1,-139.25 661.8,-344.41 983,-609.76 545.2,-450.35 870.2,-912.38 883.8,-931.83 23.6,-33.8 15.3,-80.32 -18.5,-103.9 -13,-9.08 -27.9,-13.44 -42.6,-13.44"
         style="fill:#ba225b;fill-opacity:1;fill-rule:nonzero;stroke:none"
         id="path72" /><path
         d="m 16548.8,633.699 c -15.4,0 -31,4.699 -44.3,14.699 -19.1,14.102 -471.5,352.302 -906,910.232 -256,328.75 -451.5,665.28 -581.2,1000.26 -163.3,421.65 -222.1,841.86 -174.8,1248.96 48.1,414.51 -2.2,810.63 -149.5,1177.36 -135.4,336.99 -352.1,638.32 -626.7,871.4 -527.7,447.89 -1218.5,607.73 -1847.8,427.57 -331.7,-94.94 -670.2,-99.75 -1006.3,-14.34 -267.1,67.89 -532.8,192.64 -789.7,370.76 -435,301.68 -691.71,648.63 -702.42,663.25 -24.37,33.24 -17.17,79.94 16.08,104.31 33.23,24.35 79.91,17.16 104.27,-16.05 v 0 c 2.51,-3.41 255.17,-344.08 670.77,-631.36 241.8,-167.14 490.8,-283.84 740.2,-346.88 309.3,-78.19 620.9,-73.54 926,13.79 677.5,193.93 1419.7,22.98 1985.5,-457.26 293,-248.71 524.2,-570.15 668.6,-929.57 156.6,-390.07 210.2,-810.69 159.2,-1250.18 -44.3,-382.14 11.2,-777.77 165,-1175.9 124,-321.02 311.8,-644.49 558.2,-961.44 422,-542.81 875,-881.708 879.5,-885.111 33.1,-24.5 40,-71.301 15.4,-104.398 -14.6,-19.699 -37.1,-30.102 -60,-30.102"
         style="fill:#2d3d63;fill-opacity:1;fill-rule:nonzero;stroke:none"
         id="path74" /><g
         id="g76"><g
           id="g78"
           clip-path="url(#clipPath82)"><path
             d="m 17384.7,2071.66 c -69.3,-56.85 -171.6,-46.71 -228.4,22.65 -56.9,69.36 -46.7,171.67 22.6,228.52 69.4,56.86 171.7,46.72 228.5,-22.64 56.8,-69.36 46.7,-171.68 -22.7,-228.53"
             style="fill:url(#linearGradient90);fill-opacity:1;fill-rule:nonzero;stroke:none"
             id="path92" /></g></g><g
         id="g94"><g
           id="g96"
           clip-path="url(#clipPath100)"><path
             d="m 17281.8,2284.96 c -19.6,0 -39.3,-6.5 -55.6,-19.85 -18.1,-14.86 -29.4,-35.88 -31.7,-59.2 -2.3,-23.33 4.6,-46.16 19.5,-64.29 14.8,-18.13 35.9,-29.38 59.2,-31.7 23.3,-2.32 46.1,4.6 64.2,19.46 v 0 c 37.5,30.68 43,86.08 12.3,123.5 -17.3,21.13 -42.5,32.08 -67.9,32.08 z m 0.5,-324.75 c -7.9,0 -15.9,0.39 -23.8,1.18 -63,6.24 -119.8,36.64 -159.9,85.61 -40.2,48.96 -58.8,110.62 -52.6,173.62 6.3,63 36.7,119.81 85.6,159.94 101.1,82.85 250.7,68.01 333.5,-33.06 40.1,-48.97 58.8,-110.62 52.5,-173.63 -6.2,-63 -36.6,-119.8 -85.6,-159.93 -42.7,-35.06 -95.2,-53.73 -149.7,-53.73"
             style="fill:url(#linearGradient108);fill-opacity:1;fill-rule:nonzero;stroke:none"
             id="path110" /></g></g><g
         id="g112"><g
           id="g114"
           clip-path="url(#clipPath118)"><path
             d="m 16771,2638.97 c -69.3,-56.85 -171.6,-46.71 -228.4,22.65 -56.9,69.36 -46.7,171.67 22.6,228.52 69.3,56.85 171.6,46.72 228.5,-22.64 56.8,-69.36 46.7,-171.68 -22.7,-228.53"
             style="fill:url(#linearGradient126);fill-opacity:1;fill-rule:nonzero;stroke:none"
             id="path128" /></g></g><g
         id="g130"><g
           id="g132"
           clip-path="url(#clipPath136)"><path
             d="m 16668,2852.32 c -20.2,0 -39.7,-6.92 -55.5,-19.9 -37.4,-30.67 -42.9,-86.07 -12.2,-123.49 30.6,-37.41 86,-42.91 123.4,-12.24 37.5,30.67 42.9,86.07 12.3,123.49 -14.9,18.13 -35.9,29.39 -59.2,31.7 -3,0.29 -5.9,0.44 -8.8,0.44 z m 0.3,-324.68 c -68.6,0 -136.7,29.57 -183.5,86.66 -82.8,101.08 -68,250.72 33.1,333.56 49,40.13 110.6,58.82 173.6,52.56 63,-6.25 119.8,-36.65 159.9,-85.61 82.8,-101.08 68,-250.71 -33.1,-333.56 v 0 c -43.9,-36.05 -97.1,-53.61 -150,-53.61"
             style="fill:url(#linearGradient144);fill-opacity:1;fill-rule:nonzero;stroke:none"
             id="path146" /></g></g><g
         id="g148"><g
           id="g150"
           clip-path="url(#clipPath154)"><path
             d="m 15944.5,3140.82 c -69.3,-56.85 -171.6,-46.71 -228.4,22.65 -56.9,69.36 -46.7,171.67 22.6,228.52 69.3,56.86 171.6,46.72 228.5,-22.64 56.8,-69.36 46.7,-171.68 -22.7,-228.53"
             style="fill:url(#linearGradient162);fill-opacity:1;fill-rule:nonzero;stroke:none"
             id="path164" /></g></g><g
         id="g166"><g
           id="g168"
           clip-path="url(#clipPath172)"><path
             d="m 15841.5,3354.12 c -19.5,0 -39.2,-6.5 -55.5,-19.84 -37.4,-30.67 -42.9,-86.08 -12.2,-123.5 30.6,-37.42 86,-42.9 123.4,-12.24 v 0 c 18.2,14.87 29.4,35.89 31.7,59.22 2.3,23.32 -4.6,46.15 -19.4,64.28 -17.3,21.13 -42.6,32.08 -68,32.08 z m 0.3,-324.63 c -68.6,0 -136.7,29.57 -183.5,86.66 -82.8,101.09 -68,250.72 33.1,333.57 101.1,82.84 250.7,68.02 333.5,-33.06 40.1,-48.96 58.8,-110.62 52.5,-173.63 -6.2,-63 -36.6,-119.8 -85.6,-159.93 v 0 c -43.9,-36.05 -97.1,-53.61 -150,-53.61"
             style="fill:url(#linearGradient180);fill-opacity:1;fill-rule:nonzero;stroke:none"
             id="path182" /></g></g><path
         d="m 16118.4,1013.1 c -19.7,0 -39.4,7.8 -54,23.2 -28.5,29.8 -27.4,77 2.5,105.5 l 1163.4,1109.45 c 29.9,28.44 77.1,27.34 105.5,-2.5 28.5,-29.83 27.4,-77.06 -2.5,-105.51 L 16169.9,1033.7 c -14.5,-13.7 -33,-20.6 -51.5,-20.6"
         style="fill:#2d3d63;fill-opacity:1;fill-rule:nonzero;stroke:none"
         id="path184" /><path
         d="m 15554.4,1667.17 c -20.2,0 -40.3,8.13 -55,24.16 -27.9,30.35 -25.9,77.56 4.5,105.43 l 1113.8,1022.76 c 30.3,27.87 77.5,25.87 105.4,-4.49 27.9,-30.36 25.9,-77.56 -4.5,-105.44 L 15604.8,1686.83 c -14.3,-13.16 -32.4,-19.66 -50.4,-19.66"
         style="fill:#2d3d63;fill-opacity:1;fill-rule:nonzero;stroke:none"
         id="path186" /><path
         d="m 15090.1,2502.95 c -20.2,0 -40.3,8.14 -55,24.2 -27.9,30.38 -25.8,77.58 4.6,105.43 l 751.5,688.84 c 30.4,27.85 77.6,25.79 105.4,-4.59 27.9,-30.38 25.8,-77.59 -4.6,-105.43 l -751.5,-688.84 c -14.3,-13.13 -32.4,-19.61 -50.4,-19.61"
         style="fill:#2d3d63;fill-opacity:1;fill-rule:nonzero;stroke:none"
         id="path188" /><path
         d="m 13686.2,3495.3 c -18.8,0 -37.6,7.06 -52.1,21.23 -29.5,28.79 -30.1,76.04 -1.3,105.53 l 1161.4,1189.55 c 28.8,29.5 76,30.06 105.5,1.27 29.5,-28.8 30.1,-76.04 1.3,-105.53 L 13739.6,3517.79 c -14.6,-14.98 -34,-22.49 -53.4,-22.49"
         style="fill:#2d3d63;fill-opacity:1;fill-rule:nonzero;stroke:none"
         id="path190" /><path
         d="m 12866.1,3899.39 c -18.4,0 -36.9,6.77 -51.3,20.44 -29.9,28.34 -31.2,75.58 -2.9,105.5 l 1547.3,1633.57 c 28.3,29.92 75.5,31.2 105.5,2.86 29.9,-28.34 31.2,-75.57 2.8,-105.5 L 12920.3,3922.69 c -14.7,-15.49 -34.4,-23.3 -54.2,-23.3"
         style="fill:#2d3d63;fill-opacity:1;fill-rule:nonzero;stroke:none"
         id="path192" /><path
         d="m 12309.5,4620.9 c -18.4,0 -36.7,6.72 -51.2,20.29 -30,28.25 -31.4,75.48 -3.1,105.49 l 1364.9,1450.01 c 28.2,30 75.5,31.44 105.5,3.18 30,-28.25 31.4,-75.48 3.2,-105.49 l -1365,-1450.01 c -14.7,-15.59 -34.5,-23.47 -54.3,-23.47"
         style="fill:#2d3d63;fill-opacity:1;fill-rule:nonzero;stroke:none"
         id="path194" /><path
         d="m 12026.5,5586.36 c -18.8,0 -37.5,7.02 -52,21.11 -29.6,28.72 -30.3,75.97 -1.6,105.52 l 748.9,770.67 c 28.8,29.57 76,30.23 105.6,1.52 29.5,-28.73 30.2,-75.97 1.5,-105.53 L 12080,5608.98 c -14.6,-15.05 -34.1,-22.62 -53.5,-22.62"
         style="fill:#2d3d63;fill-opacity:1;fill-rule:nonzero;stroke:none"
         id="path196" /><g
         id="g198"><g
           id="g200"
           clip-path="url(#clipPath204)"><path
             d="m 13012.9,3857.17 c -69.4,-56.85 -171.7,-46.7 -228.5,22.66 -56.9,69.36 -46.7,171.67 22.6,228.52 69.4,56.85 171.7,46.71 228.5,-22.65 56.8,-69.36 46.7,-171.67 -22.6,-228.53"
             style="fill:url(#linearGradient212);fill-opacity:1;fill-rule:nonzero;stroke:none"
             id="path214" /></g></g><g
         id="g216"><g
           id="g218"
           clip-path="url(#clipPath222)"><path
             d="m 12909.9,4070.48 c -19.6,0 -39.3,-6.5 -55.6,-19.85 -37.4,-30.67 -42.9,-86.07 -12.2,-123.49 30.6,-37.43 86,-42.91 123.5,-12.25 37.4,30.68 42.9,86.08 12.2,123.5 -17.3,21.14 -42.5,32.09 -67.9,32.09 z m 0.5,-324.76 c -7.9,0 -15.9,0.39 -23.8,1.18 -63,6.25 -119.8,36.65 -159.9,85.61 -40.2,48.97 -58.8,110.63 -52.6,173.63 6.3,63 36.7,119.8 85.6,159.93 49,40.13 110.6,58.8 173.6,52.55 63,-6.24 119.8,-36.64 159.9,-85.61 40.1,-48.96 58.8,-110.62 52.5,-173.62 -6.2,-63 -36.6,-119.8 -85.5,-159.94 -42.8,-35.05 -95.3,-53.73 -149.8,-53.73"
             style="fill:url(#linearGradient230);fill-opacity:1;fill-rule:nonzero;stroke:none"
             id="path232" /></g></g><g
         id="g234"><g
           id="g236"
           clip-path="url(#clipPath240)"><path
             d="m 12412.4,4569.93 c -69.3,-56.85 -171.6,-46.71 -228.5,22.65 -56.8,69.37 -46.7,171.68 22.7,228.53 69.3,56.85 171.6,46.71 228.5,-22.65 56.8,-69.36 46.7,-171.67 -22.7,-228.53"
             style="fill:url(#linearGradient248);fill-opacity:1;fill-rule:nonzero;stroke:none"
             id="path250" /></g></g><g
         id="g252"><g
           id="g254"
           clip-path="url(#clipPath258)"><path
             d="m 12309.4,4783.24 c -19.6,0 -39.2,-6.5 -55.5,-19.85 -37.4,-30.67 -42.9,-86.07 -12.3,-123.5 30.7,-37.42 86.1,-42.9 123.5,-12.23 37.4,30.67 42.9,86.07 12.2,123.49 -17.3,21.14 -42.5,32.09 -67.9,32.09 z m 0.5,-324.76 c -7.9,0 -15.8,0.39 -23.8,1.18 -63,6.25 -119.8,36.65 -159.9,85.61 -40.1,48.97 -58.8,110.63 -52.5,173.63 6.2,63 36.6,119.8 85.6,159.93 48.9,40.13 110.6,58.79 173.6,52.55 62.9,-6.24 119.7,-36.64 159.9,-85.61 40.1,-48.96 58.7,-110.62 52.5,-173.62 -6.2,-63 -36.6,-119.8 -85.6,-159.94 -42.8,-35.05 -95.2,-53.73 -149.8,-53.73"
             style="fill:url(#linearGradient266);fill-opacity:1;fill-rule:nonzero;stroke:none"
             id="path268" /></g></g><g
         id="g270"><g
           id="g272"
           clip-path="url(#clipPath276)"><path
             d="m 12129.4,5535.4 c -69.4,-56.85 -171.7,-46.71 -228.5,22.65 -56.8,69.36 -46.7,171.67 22.6,228.52 69.4,56.85 171.7,46.72 228.5,-22.64 56.9,-69.36 46.7,-171.68 -22.6,-228.53"
             style="fill:url(#linearGradient284);fill-opacity:1;fill-rule:nonzero;stroke:none"
             id="path286" /></g></g><g
         id="g288"><g
           id="g290"
           clip-path="url(#clipPath294)"><path
             d="m 12026.4,5748.7 c -19.6,0 -39.3,-6.5 -55.6,-19.85 -18.1,-14.85 -29.3,-35.88 -31.6,-59.21 -2.4,-23.32 4.6,-46.15 19.4,-64.28 14.9,-18.13 35.9,-29.39 59.2,-31.7 23.3,-2.31 46.2,4.6 64.3,19.46 37.4,30.68 42.9,86.07 12.2,123.5 -17.3,21.13 -42.5,32.08 -67.9,32.08 z m 0.5,-324.75 c -7.9,0 -15.8,0.39 -23.8,1.18 -63,6.24 -119.8,36.64 -159.9,85.61 -40.1,48.96 -58.8,110.62 -52.6,173.62 6.3,63.01 36.7,119.8 85.6,159.93 49,40.14 110.6,58.83 173.6,52.56 63,-6.24 119.8,-36.65 159.9,-85.61 82.9,-101.08 68,-250.71 -33,-333.56 -42.8,-35.06 -95.2,-53.73 -149.8,-53.73"
             style="fill:url(#linearGradient302);fill-opacity:1;fill-rule:nonzero;stroke:none"
             id="path304" /></g></g><path
         d="m 11168.4,6289.42 c -19.6,0 -39.1,7.64 -53.8,22.85 -28.6,29.69 -27.7,76.93 2,105.52 l 977.4,941.31 c 29.7,28.6 76.9,27.7 105.5,-1.98 28.6,-29.69 27.7,-76.93 -2,-105.52 l -977.3,-941.31 c -14.5,-13.95 -33.2,-20.87 -51.8,-20.87"
         style="fill:#2d3d63;fill-opacity:1;fill-rule:nonzero;stroke:none"
         id="path306" /><path
         d="m 10385.8,6684.22 c -20.3,0 -40.5,8.2 -55.2,24.37 -27.7,30.47 -25.5,77.67 4.9,105.42 l 1417.7,1291.38 c 30.4,27.76 77.6,25.55 105.4,-4.91 27.7,-30.47 25.5,-77.67 -4.9,-105.42 L 10436,6703.68 c -14.3,-13.03 -32.3,-19.46 -50.2,-19.46"
         style="fill:#2d3d63;fill-opacity:1;fill-rule:nonzero;stroke:none"
         id="path308" /><g
         id="g310"><g
           id="g312"
           clip-path="url(#clipPath316)"><path
             d="m 12248.7,7179.76 c -69.3,-56.85 -171.6,-46.71 -228.5,22.65 -56.8,69.36 -46.7,171.68 22.7,228.53 69.3,56.85 171.6,46.71 228.4,-22.65 56.9,-69.36 46.7,-171.67 -22.6,-228.53"
             style="fill:url(#linearGradient324);fill-opacity:1;fill-rule:nonzero;stroke:none"
             id="path326" /></g></g><g
         id="g328"><g
           id="g330"
           clip-path="url(#clipPath334)"><path
             d="m 12145.7,7393.06 c -19.6,0 -39.3,-6.49 -55.5,-19.84 -37.5,-30.67 -42.9,-86.07 -12.3,-123.5 30.7,-37.41 86.1,-42.91 123.5,-12.24 37.4,30.68 42.9,86.08 12.2,123.5 -17.3,21.14 -42.5,32.08 -67.9,32.08 z m 0.3,-324.63 c -68.6,0 -136.7,29.58 -183.5,86.67 -82.8,101.08 -68,250.71 33.1,333.56 48.9,40.13 110.6,58.8 173.5,52.55 63,-6.24 119.8,-36.64 160,-85.61 82.8,-101.07 68,-250.71 -33.1,-333.56 v 0 c -44,-36.04 -97.1,-53.61 -150,-53.61"
             style="fill:url(#linearGradient342);fill-opacity:1;fill-rule:nonzero;stroke:none"
             id="path344" /></g></g><g
         id="g346"><g
           id="g348"
           clip-path="url(#clipPath352)"><path
             d="m 11906.3,7924.64 c -69.3,-56.86 -171.6,-46.71 -228.4,22.65 -56.9,69.36 -46.8,171.67 22.6,228.52 69.3,56.85 171.6,46.72 228.5,-22.64 56.8,-69.36 46.7,-171.68 -22.7,-228.53"
             style="fill:url(#linearGradient360);fill-opacity:1;fill-rule:nonzero;stroke:none"
             id="path362" /></g></g><g
         id="g364"><g
           id="g366"
           clip-path="url(#clipPath370)"><path
             d="m 11803.3,8137.98 c -20.2,0 -39.7,-6.91 -55.5,-19.89 -18.1,-14.86 -29.4,-35.88 -31.7,-59.21 -2.3,-23.32 4.6,-46.15 19.5,-64.28 14.8,-18.13 35.8,-29.38 59.2,-31.7 23.3,-2.31 46.1,4.6 64.2,19.46 v 0 c 18.2,14.86 29.4,35.89 31.7,59.21 2.3,23.33 -4.6,46.16 -19.4,64.29 -14.9,18.13 -35.9,29.38 -59.2,31.69 -3,0.29 -5.9,0.43 -8.8,0.43 z m 0.5,-324.79 c -7.9,0 -15.8,0.38 -23.8,1.17 -62.9,6.25 -119.7,36.65 -159.9,85.62 -40.1,48.96 -58.7,110.62 -52.5,173.62 6.2,63 36.6,119.8 85.6,159.93 48.9,40.13 110.6,58.82 173.6,52.56 63,-6.24 119.8,-36.65 159.9,-85.61 40.1,-48.96 58.8,-110.63 52.5,-173.63 -6.2,-63 -36.6,-119.8 -85.6,-159.93 -42.7,-35.06 -95.2,-53.73 -149.8,-53.73"
             style="fill:url(#linearGradient378);fill-opacity:1;fill-rule:nonzero;stroke:none"
             id="path380" /></g></g><g
         id="g382"><g
           id="g384"
           clip-path="url(#clipPath388)"><path
             d="m 16221.3,962.199 c -69.4,-56.898 -171.6,-46.699 -228.5,22.602 -56.8,69.399 -46.7,171.699 22.7,228.499 69.3,56.89 171.6,46.75 228.4,-22.6 56.9,-69.4 46.7,-171.7 -22.6,-228.501"
             style="fill:url(#linearGradient398);fill-opacity:1;fill-rule:nonzero;stroke:none"
             id="path400" /></g></g><g
         id="g402"><g
           id="g404"
           clip-path="url(#clipPath408)"><path
             d="m 16118.3,1175.5 c -19.6,0 -39.3,-6.5 -55.5,-19.9 -37.5,-30.7 -42.9,-86.1 -12.3,-123.5 30.7,-37.401 86.1,-42.901 123.5,-12.2 37.4,30.7 42.9,86.1 12.2,123.5 -17.3,21.1 -42.5,32.1 -67.9,32.1 z m 0.5,-324.801 c -7.9,0 -15.8,0.403 -23.8,1.199 -63,6.204 -119.8,36.602 -159.9,85.602 -40.1,49 -58.8,110.6 -52.5,173.6 6.2,63 36.6,119.82 85.6,159.96 48.9,40.13 110.6,58.81 173.5,52.56 63,-6.25 119.8,-36.66 159.9,-85.62 82.9,-101.1 68,-250.699 -33,-333.602 -42.8,-35 -95.2,-53.699 -149.8,-53.699"
             style="fill:url(#linearGradient418);fill-opacity:1;fill-rule:nonzero;stroke:none"
             id="path420" /></g></g><g
         id="g422"><g
           id="g424"
           clip-path="url(#clipPath428)"><path
             d="m 14950.5,4633.89 c -69.3,-56.85 -171.6,-46.71 -228.5,22.65 -56.8,69.36 -46.7,171.67 22.7,228.53 69.3,56.85 171.6,46.71 228.5,-22.65 56.8,-69.36 46.7,-171.68 -22.7,-228.53"
             style="fill:url(#linearGradient438);fill-opacity:1;fill-rule:nonzero;stroke:none"
             id="path440" /></g></g><g
         id="g442"><g
           id="g444"
           clip-path="url(#clipPath448)"><path
             d="m 14847.5,4847.19 c -19.6,0 -39.2,-6.49 -55.5,-19.84 -37.4,-30.67 -42.9,-86.07 -12.3,-123.5 14.9,-18.13 35.9,-29.38 59.2,-31.69 23.3,-2.33 46.2,4.59 64.3,19.45 v 0 c 18.1,14.87 29.4,35.89 31.7,59.22 2.3,23.32 -4.6,46.15 -19.5,64.28 -17.3,21.14 -42.5,32.08 -67.9,32.08 z m 0.5,-324.75 c -7.9,0 -15.8,0.39 -23.8,1.18 -63,6.24 -119.8,36.65 -159.9,85.61 -40.1,48.97 -58.8,110.63 -52.5,173.63 6.2,63 36.6,119.8 85.6,159.93 101,82.85 250.6,68.01 333.5,-33.06 40.1,-48.96 58.7,-110.62 52.5,-173.62 -6.2,-63.01 -36.6,-119.8 -85.6,-159.94 -42.8,-35.05 -95.2,-53.73 -149.8,-53.73"
             style="fill:url(#linearGradient458);fill-opacity:1;fill-rule:nonzero;stroke:none"
             id="path460" /></g></g><g
         id="g462"><g
           id="g464"
           clip-path="url(#clipPath468)"><path
             d="m 15193,2451.98 c -69.3,-56.85 -171.6,-46.7 -228.5,22.65 -56.8,69.36 -46.7,171.68 22.7,228.53 69.3,56.85 171.6,46.71 228.5,-22.65 56.8,-69.36 46.7,-171.68 -22.7,-228.53"
             style="fill:url(#linearGradient478);fill-opacity:1;fill-rule:nonzero;stroke:none"
             id="path480" /></g></g><g
         id="g482"><g
           id="g484"
           clip-path="url(#clipPath488)"><path
             d="m 15089.9,2665.33 c -20.2,0 -39.6,-6.91 -55.4,-19.89 -37.4,-30.68 -42.9,-86.07 -12.2,-123.5 30.6,-37.41 86,-42.9 123.4,-12.24 v 0 c 37.4,30.68 42.9,86.08 12.3,123.5 -14.9,18.13 -35.9,29.38 -59.2,31.69 -3,0.3 -5.9,0.44 -8.9,0.44 z m 0.4,-324.67 c -68.6,0 -136.7,29.57 -183.5,86.66 -40.1,48.97 -58.7,110.63 -52.5,173.62 6.2,63.01 36.6,119.81 85.6,159.94 48.9,40.14 110.6,58.78 173.6,52.55 63,-6.24 119.8,-36.65 159.9,-85.61 40.1,-48.96 58.8,-110.63 52.5,-173.62 -6.2,-63.01 -36.6,-119.8 -85.6,-159.94 v 0 c -43.9,-36.05 -97.1,-53.6 -150,-53.6"
             style="fill:url(#linearGradient498);fill-opacity:1;fill-rule:nonzero;stroke:none"
             id="path500" /></g></g><g
         id="g502"><g
           id="g504"
           clip-path="url(#clipPath508)"><path
             d="m 15657.3,1616.21 c -69.4,-56.85 -171.7,-46.71 -228.5,22.65 -56.8,69.36 -46.7,171.67 22.6,228.52 69.4,56.86 171.7,46.72 228.5,-22.64 56.9,-69.36 46.7,-171.68 -22.6,-228.53"
             style="fill:url(#linearGradient518);fill-opacity:1;fill-rule:nonzero;stroke:none"
             id="path520" /></g></g><g
         id="g522"><g
           id="g524"
           clip-path="url(#clipPath528)"><path
             d="m 15554.2,1829.56 c -20.2,0 -39.6,-6.92 -55.4,-19.9 -18.2,-14.85 -29.4,-35.88 -31.7,-59.21 -2.4,-23.32 4.6,-46.15 19.4,-64.28 30.7,-37.41 86.1,-42.9 123.5,-12.24 v 0 c 37.4,30.67 42.9,86.08 12.2,123.49 -14.8,18.13 -35.9,29.39 -59.2,31.7 -2.9,0.3 -5.9,0.44 -8.8,0.44 z m 0.4,-324.68 c -68.6,0 -136.7,29.57 -183.5,86.66 -40.1,48.97 -58.8,110.63 -52.5,173.63 6.2,63.01 36.6,119.81 85.5,159.93 49,40.14 110.6,58.78 173.6,52.56 63,-6.24 119.8,-36.65 159.9,-85.61 40.2,-48.96 58.8,-110.63 52.6,-173.63 -6.3,-63 -36.7,-119.8 -85.6,-159.93 v 0 c -44,-36.05 -97.2,-53.61 -150,-53.61"
             style="fill:url(#linearGradient538);fill-opacity:1;fill-rule:nonzero;stroke:none"
             id="path540" /></g></g><g
         id="g542"><g
           id="g544"
           clip-path="url(#clipPath548)"><path
             d="m 14516.3,5481.99 c -69.4,-56.85 -171.7,-46.71 -228.5,22.65 -56.9,69.36 -46.7,171.68 22.6,228.53 69.4,56.85 171.7,46.71 228.5,-22.65 56.8,-69.36 46.7,-171.68 -22.6,-228.53"
             style="fill:url(#linearGradient558);fill-opacity:1;fill-rule:nonzero;stroke:none"
             id="path560" /></g></g><g
         id="g562"><g
           id="g564"
           clip-path="url(#clipPath568)"><path
             d="m 14413.3,5695.29 c -19.6,0 -39.3,-6.49 -55.6,-19.84 -18.1,-14.86 -29.4,-35.89 -31.7,-59.21 -2.3,-23.33 4.6,-46.16 19.5,-64.29 14.8,-18.12 35.9,-29.38 59.2,-31.69 23.3,-2.31 46.1,4.59 64.3,19.45 v 0 c 37.4,30.68 42.9,86.08 12.2,123.5 -17.3,21.14 -42.5,32.08 -67.9,32.08 z m 0.5,-324.75 c -7.9,0 -15.9,0.39 -23.8,1.18 -63,6.24 -119.8,36.65 -159.9,85.61 -40.2,48.96 -58.8,110.63 -52.6,173.62 6.3,63.01 36.7,119.81 85.6,159.94 101.1,82.85 250.7,68.01 333.5,-33.06 82.8,-101.08 68,-250.71 -33,-333.56 -42.8,-35.05 -95.3,-53.73 -149.8,-53.73"
             style="fill:url(#linearGradient578);fill-opacity:1;fill-rule:nonzero;stroke:none"
             id="path580" /></g></g><g
         id="g582"><g
           id="g584"
           clip-path="url(#clipPath588)"><path
             d="m 13777.4,6019.95 c -69.4,-56.85 -171.7,-46.72 -228.5,22.64 -56.9,69.36 -46.7,171.68 22.6,228.53 69.4,56.86 171.7,46.71 228.5,-22.65 56.8,-69.36 46.7,-171.67 -22.6,-228.52"
             style="fill:url(#linearGradient598);fill-opacity:1;fill-rule:nonzero;stroke:none"
             id="path600" /></g></g><g
         id="g602"><g
           id="g604"
           clip-path="url(#clipPath608)"><path
             d="m 13674.4,6233.25 c -19.6,0 -39.3,-6.5 -55.6,-19.85 -37.4,-30.67 -42.9,-86.07 -12.2,-123.49 30.6,-37.42 86,-42.92 123.5,-12.24 37.4,30.67 42.9,86.07 12.2,123.49 -17.3,21.14 -42.5,32.09 -67.9,32.09 z m 0.5,-324.76 c -7.9,0 -15.9,0.39 -23.8,1.18 -63,6.25 -119.8,36.65 -159.9,85.62 -40.2,48.96 -58.8,110.62 -52.6,173.62 6.3,63 36.7,119.8 85.6,159.93 49,40.13 110.6,58.81 173.6,52.55 63,-6.24 119.8,-36.64 159.9,-85.6 40.1,-48.97 58.8,-110.63 52.5,-173.63 -6.2,-63 -36.6,-119.8 -85.5,-159.93 -42.8,-35.06 -95.3,-53.74 -149.8,-53.74"
             style="fill:url(#linearGradient618);fill-opacity:1;fill-rule:nonzero;stroke:none"
             id="path620" /></g></g><g
         id="g622"><g
           id="g624"
           clip-path="url(#clipPath628)"><path
             d="m 12878.3,6306.07 c -69.4,-56.85 -171.7,-46.71 -228.5,22.65 -56.8,69.36 -46.7,171.67 22.6,228.52 69.4,56.85 171.7,46.72 228.5,-22.64 56.9,-69.36 46.7,-171.68 -22.6,-228.53"
             style="fill:url(#linearGradient638);fill-opacity:1;fill-rule:nonzero;stroke:none"
             id="path640" /></g></g><g
         id="g642"><g
           id="g644"
           clip-path="url(#clipPath648)"><path
             d="m 12775.2,6519.42 c -20.2,0 -39.6,-6.92 -55.5,-19.9 -37.4,-30.67 -42.9,-86.07 -12.2,-123.5 30.7,-37.42 86.1,-42.89 123.5,-12.23 v 0.01 c 18.1,14.85 29.4,35.88 31.7,59.2 2.3,23.32 -4.6,46.16 -19.5,64.28 -14.8,18.13 -35.9,29.39 -59.2,31.7 -2.9,0.29 -5.9,0.44 -8.8,0.44 z m 0.4,-324.68 c -68.6,0 -136.7,29.57 -183.5,86.66 -40.1,48.97 -58.8,110.63 -52.6,173.63 6.3,63 36.7,119.8 85.6,159.93 49,40.13 110.6,58.8 173.6,52.56 63,-6.24 119.8,-36.65 159.9,-85.61 40.2,-48.96 58.8,-110.63 52.6,-173.63 -6.3,-63 -36.7,-119.8 -85.6,-159.93 -44,-36.05 -97.2,-53.61 -150,-53.61"
             style="fill:url(#linearGradient658);fill-opacity:1;fill-rule:nonzero;stroke:none"
             id="path660" /></g></g><g
         id="g662"><g
           id="g664"
           clip-path="url(#clipPath668)"><path
             d="m 11271.3,6238.45 c -69.3,-56.85 -171.6,-46.71 -228.5,22.66 -56.8,69.35 -46.7,171.66 22.7,228.52 69.3,56.85 171.6,46.71 228.4,-22.65 56.9,-69.36 46.7,-171.68 -22.6,-228.53"
             style="fill:url(#linearGradient678);fill-opacity:1;fill-rule:nonzero;stroke:none"
             id="path680" /></g></g><g
         id="g682"><g
           id="g684"
           clip-path="url(#clipPath688)"><path
             d="m 11168.3,6451.76 c -19.6,0 -39.3,-6.5 -55.5,-19.85 -37.4,-30.67 -42.9,-86.07 -12.3,-123.5 30.7,-37.42 86.1,-42.9 123.5,-12.23 v 0 c 18.1,14.86 29.4,35.88 31.7,59.21 2.3,23.32 -4.6,46.15 -19.5,64.28 -17.3,21.14 -42.5,32.09 -67.9,32.09 z m 0.3,-324.63 c -68.6,0 -136.7,29.57 -183.5,86.66 -82.8,101.08 -68,250.71 33.1,333.56 101,82.84 250.6,68.01 333.5,-33.06 40.1,-48.96 58.7,-110.62 52.5,-173.62 -6.2,-63.01 -36.6,-119.8 -85.6,-159.94 v 0 c -44,-36.04 -97.2,-53.6 -150,-53.6"
             style="fill:url(#linearGradient698);fill-opacity:1;fill-rule:nonzero;stroke:none"
             id="path700" /></g></g><g
         id="g702"><g
           id="g704"
           clip-path="url(#clipPath708)"><path
             d="m 10488.7,6633.26 c -69.3,-56.86 -171.6,-46.72 -228.5,22.64 -56.8,69.37 -46.7,171.68 22.7,228.53 69.3,56.85 171.6,46.71 228.5,-22.65 56.8,-69.36 46.7,-171.67 -22.7,-228.52"
             style="fill:url(#linearGradient718);fill-opacity:1;fill-rule:nonzero;stroke:none"
             id="path720" /></g></g><g
         id="g722"><g
           id="g724"
           clip-path="url(#clipPath728)"><path
             d="m 10385.6,6846.6 c -20.2,0 -39.6,-6.91 -55.4,-19.89 -37.4,-30.67 -42.9,-86.07 -12.3,-123.5 30.7,-37.42 86.1,-42.91 123.5,-12.23 37.4,30.67 42.9,86.07 12.2,123.49 -14.8,18.13 -35.8,29.38 -59.2,31.7 -2.9,0.29 -5.8,0.43 -8.8,0.43 z m 0.4,-324.67 c -68.6,0 -136.7,29.57 -183.5,86.66 -40.1,48.97 -58.8,110.63 -52.5,173.63 6.2,63 36.6,119.8 85.6,159.93 48.9,40.13 110.5,58.82 173.6,52.55 62.9,-6.24 119.7,-36.64 159.9,-85.61 82.8,-101.07 68,-250.71 -33.1,-333.56 v 0 c -44,-36.04 -97.1,-53.6 -150,-53.6"
             style="fill:url(#linearGradient738);fill-opacity:1;fill-rule:nonzero;stroke:none"
             id="path740" /></g></g><g
         id="g742"><g
           id="g744"
           clip-path="url(#clipPath748)"><path
             d="m 13821.4,3470.76 c -69.4,-56.85 -171.7,-46.71 -228.5,22.65 -56.9,69.36 -46.7,171.68 22.6,228.53 69.4,56.85 171.7,46.71 228.5,-22.65 56.8,-69.36 46.7,-171.67 -22.6,-228.53"
             style="fill:url(#linearGradient756);fill-opacity:1;fill-rule:nonzero;stroke:none"
             id="path758" /></g></g><g
         id="g760"><g
           id="g762"
           clip-path="url(#clipPath766)"><path
             d="m 13718.4,3684.07 c -19.6,0 -39.3,-6.5 -55.6,-19.85 -37.4,-30.67 -42.9,-86.07 -12.2,-123.5 30.7,-37.42 86.1,-42.9 123.5,-12.23 v 0 c 18.1,14.86 29.3,35.88 31.7,59.21 2.3,23.32 -4.6,46.15 -19.5,64.28 -17.3,21.14 -42.5,32.09 -67.9,32.09 z m 0.3,-324.63 c -68.7,0 -136.7,29.57 -183.5,86.66 -82.9,101.08 -68,250.71 33,333.56 101.1,82.84 250.7,68.02 333.5,-33.06 40.1,-48.96 58.8,-110.62 52.6,-173.62 -6.3,-63.01 -36.7,-119.8 -85.6,-159.94 v 0 c -44,-36.04 -97.2,-53.6 -150,-53.6"
             style="fill:url(#linearGradient774);fill-opacity:1;fill-rule:nonzero;stroke:none"
             id="path776" /></g></g><path
         d="m 16076.8,5059.47 -86.3,71.23 607.6,736.52 -480.6,813.42 769.9,669.81 73.5,-84.46 -699.6,-608.64 473.1,-800.8 -657.6,-797.08"
         style="fill:#2d3d63;fill-opacity:1;fill-rule:nonzero;stroke:none"
         id="path778" /><g
         id="g780"><g
           id="g782"
           clip-path="url(#clipPath786)"><path
             d="m 16177.3,6406.62 c -144.9,6.71 -256.9,129.61 -250.2,274.51 6.7,144.9 129.6,256.93 274.4,250.23 144.9,-6.71 256.9,-129.61 250.2,-274.51 -6.7,-144.9 -129.6,-256.93 -274.4,-250.23"
             style="fill:url(#linearGradient796);fill-opacity:1;fill-rule:nonzero;stroke:none"
             id="path798" /></g></g><g
         id="g800"><g
           id="g802"
           clip-path="url(#clipPath806)"><path
             d="m 16657.6,5674.92 c -103.3,4.78 -183.1,92.36 -178.3,195.62 4.8,103.26 92.3,183.09 195.6,178.31 103.2,-4.78 183,-92.36 178.2,-195.62 -4.7,-103.25 -92.3,-183.08 -195.5,-178.31"
             style="fill:url(#linearGradient816);fill-opacity:1;fill-rule:nonzero;stroke:none"
             id="path818" /></g></g><g
         id="g820"><g
           id="g822"
           clip-path="url(#clipPath826)"><path
             d="m 16909.6,6994.04 c -173.5,8.03 -307.6,155.2 -299.6,328.72 8,173.52 155.2,307.67 328.7,299.64 173.4,-8.03 307.6,-155.21 299.5,-328.72 -8,-173.52 -155.1,-307.67 -328.6,-299.64"
             style="fill:url(#linearGradient836);fill-opacity:1;fill-rule:nonzero;stroke:none"
             id="path838" /></g></g><g
         id="g840"><g
           id="g842"
           clip-path="url(#clipPath846)"><path
             d="m 16019.1,4780.91 c -173.5,8.03 -307.6,155.2 -299.6,328.72 8.1,173.51 155.2,307.67 328.7,299.64 173.5,-8.03 307.6,-155.21 299.6,-328.72 -8.1,-173.52 -155.2,-307.67 -328.7,-299.64"
             style="fill:url(#linearGradient856);fill-opacity:1;fill-rule:nonzero;stroke:none"
             id="path858" /></g></g><path
         d="m 11691.4,2173.38 -904.5,499.38 54.1,98 835.8,-461.42 710.6,622.41 800.2,-633.27 -69.4,-87.77 -727.1,575.42 -699.7,-612.75"
         style="fill:#ba225b;fill-opacity:1;fill-rule:nonzero;stroke:none"
         id="path860" /><g
         id="g862"><g
           id="g864"
           clip-path="url(#clipPath868)"><path
             d="m 12129.2,2822.49 c -20.1,143.65 80,276.42 223.6,296.56 143.6,20.13 276.4,-80 296.5,-223.65 20.1,-143.65 -80,-276.42 -223.6,-296.56 -143.6,-20.14 -276.4,79.99 -296.5,223.65"
             style="fill:url(#linearGradient876);fill-opacity:1;fill-rule:nonzero;stroke:none"
             id="path878" /></g></g><g
         id="g880"><g
           id="g882"
           clip-path="url(#clipPath886)"><path
             d="m 11498.8,2215.38 c -14.4,102.37 57,196.98 159.3,211.33 102.4,14.35 197,-57.01 211.3,-159.37 14.4,-102.37 -57,-196.98 -159.3,-211.33 -102.4,-14.35 -197,57 -211.3,159.37"
             style="fill:url(#linearGradient894);fill-opacity:1;fill-rule:nonzero;stroke:none"
             id="path896" /></g></g><g
         id="g898"><g
           id="g900"
           clip-path="url(#clipPath904)"><path
             d="m 12841.5,2210.94 c -24.1,172.02 95.8,331.02 267.8,355.13 172,24.11 330.9,-95.79 355,-267.82 24.1,-172.02 -95.8,-331.01 -267.7,-355.12 -172,-24.11 -331,95.79 -355.1,267.81"
             style="fill:url(#linearGradient912);fill-opacity:1;fill-rule:nonzero;stroke:none"
             id="path914" /></g></g><g
         id="g916"><g
           id="g918"
           clip-path="url(#clipPath922)"><path
             d="m 10502.5,2678.1 c -24.1,172.02 95.8,331.02 267.8,355.13 172,24.11 330.9,-95.79 355,-267.81 24.2,-172.02 -95.7,-331.02 -267.7,-355.13 -172,-24.11 -331,95.79 -355.1,267.81"
             style="fill:url(#linearGradient930);fill-opacity:1;fill-rule:nonzero;stroke:none"
             id="path932" /></g></g><path
         d="m 8769.87,10563 h -131.53 v 141.2 h 131.53 V 10563"
         style="fill:#ffffff;fill-opacity:1;fill-rule:nonzero;stroke:none"
         id="path934" /><path
         d="m 9735.08,10563 h -822.77 v 146.1 h 822.77 V 10563"
         style="fill:#5b858e;fill-opacity:1;fill-rule:nonzero;stroke:none"
         id="path936" /><path
         d="m 10971.4,10563 h -131.5 v 141.2 h 131.5 V 10563"
         style="fill:#ffffff;fill-opacity:1;fill-rule:nonzero;stroke:none"
         id="path938" /><path
         d="m 11936.6,10563 h -822.7 v 146.1 h 822.7 V 10563"
         style="fill:#5b858e;fill-opacity:1;fill-rule:nonzero;stroke:none"
         id="path940" /><path
         d="m 13173,10563 h -131.6 v 141.2 H 13173 V 10563"
         style="fill:#ffffff;fill-opacity:1;fill-rule:nonzero;stroke:none"
         id="path942" /><path
         d="m 14138.2,10563 h -822.8 v 146.1 h 822.8 V 10563"
         style="fill:#5b858e;fill-opacity:1;fill-rule:nonzero;stroke:none"
         id="path944" /><path
         d="M 15374.5,10563 H 15243 v 141.2 h 131.5 V 10563"
         style="fill:#ffffff;fill-opacity:1;fill-rule:nonzero;stroke:none"
         id="path946" /><path
         d="M 16339.7,10563 H 15517 v 146.1 h 822.7 V 10563"
         style="fill:#5b858e;fill-opacity:1;fill-rule:nonzero;stroke:none"
         id="path948" /><path
         d="m 18192.3,10563 h -822.8 v 146.1 h 822.8 V 10563"
         style="fill:#ffffff;fill-opacity:1;fill-rule:nonzero;stroke:none"
         id="path950" /><path
         d="M 502.703,9226.65 H 337.602 V 10822.9 H 502.703 V 9226.65"
         style="fill:#ffffff;fill-opacity:1;fill-rule:nonzero;stroke:none"
         id="path952" /></g></g></svg>
